<?xml version="1.0" encoding="utf-8" standalone="yes"?>
<!DOCTYPE svg PUBLIC "-//W3C//DTD SVG 1.1//EN" "http://www.w3.org/Graphics/SVG/1.1/DTD/svg11.dtd">
<svg style="fill:none;stroke:none;fill-rule:evenodd;clip-rule:evenodd;stroke-linecap:round;stroke-linejoin:round;stroke-miterlimit:1.5;" version="1.1" xmlns="http://www.w3.org/2000/svg" xmlns:xlink="http://www.w3.org/1999/xlink" width="697" height="582" viewBox="0 0 697 582"><style class="text-font-style fontImports" data-font-family="Shantell Sans">@import url(https://fonts.googleapis.com/css2?family=Shantell+Sans:wght@300..800&amp;amp;display=block);</style><g id="items" style="isolation: isolate"><g id="blend" style="mix-blend-mode: normal"><g id="g-root-cp_1_g-1_1hby1jl1n6lqmd-fill" data-item-order="-314898" transform="translate(14, 164)"><g id="cp_1_g-1_1hby1jl1n6lqmd-fill-merged" stroke="none" fill="#3e4e69" fill-opacity="1"><g><path d="M82 10 H139.6L154 34L139.6 58 H82L96.4 34L82 10 M38.8 10 H67.6L82 34L67.6 58 H38.8L53.2 34L38.8 10 M10 10 H24.4L38.8 34L24.4 58 H10L24.4 34L10 10 M82 34 H53.2 M38.8 34 H24.4 M96.4 34 H154"></path></g></g></g><g id="g-root-cp_1_g-1_1hby1jl1n6lqmd-stroke" data-item-order="-314898" transform="translate(14, 164)"><g id="cp_1_g-1_1hby1jl1n6lqmd-stroke" fill="none" stroke-linecap="round" stroke-linejoin="round" stroke-miterlimit="4" stroke="#f4f4f4" stroke-width="2" stroke-opacity="1"><g><path d="M 82 10L 139.6 10L 154 34L 139.6 58L 82 58L 96.4 34L 82 10ZM 38.8 10L 67.6 10L 82 34L 67.6 58L 38.8 58L 53.2 34L 38.8 10ZM 10 10L 24.4 10L 38.8 34L 24.4 58L 10 58L 24.4 34L 10 10ZM 82 34L 53.2 34M 38.8 34L 24.4 34M 96.4 34L 154 34M 82 70L 82 154"></path></g></g></g><g id="g-root-cp_2_g-2_1hby1jl1n6lqme-fill" data-item-order="-314878" transform="translate(182, 164)"><g id="cp_2_g-2_1hby1jl1n6lqme-fill-merged" stroke="none" fill="#344e57" fill-opacity="1"><g><path d="M82 10 H139.6L154 34L139.6 58 H82L96.4 34L82 10 M38.8 10 H67.6L82 34L67.6 58 H38.8L53.2 34L38.8 10 M10 10 H24.4L38.8 34L24.4 58 H10L24.4 34L10 10 M82 34 H53.2 M38.8 34 H24.4 M96.4 34 H154"></path></g></g></g><g id="g-root-cp_2_g-2_1hby1jl1n6lqme-stroke" data-item-order="-314878" transform="translate(182, 164)"><g id="cp_2_g-2_1hby1jl1n6lqme-stroke" fill="none" stroke-linecap="round" stroke-linejoin="round" stroke-miterlimit="4" stroke="#f4f4f4" stroke-width="2" stroke-opacity="1"><g><path d="M 82 10L 139.6 10L 154 34L 139.6 58L 82 58L 96.4 34L 82 10ZM 38.8 10L 67.6 10L 82 34L 67.6 58L 38.8 58L 53.2 34L 38.8 10ZM 10 10L 24.4 10L 38.8 34L 24.4 58L 10 58L 24.4 34L 10 10ZM 82 34L 53.2 34M 38.8 34L 24.4 34M 96.4 34L 154 34M 82 70L 82 226"></path></g></g></g><g id="g-root-cp_3_g-3_18gxidt1n6lo9b-fill" data-item-order="-314860" transform="translate(350, 164)"><g id="cp_3_g-3_18gxidt1n6lo9b-fill-merged" stroke="none" fill="#3b5649" fill-opacity="1"><g><path d="M82 10 H139.6L154 34L139.6 58 H82L96.4 34L82 10 M38.8 10 H67.6L82 34L67.6 58 H38.8L53.2 34L38.8 10 M10 10 H24.4L38.8 34L24.4 58 H10L24.4 34L10 10 M82 34 H53.2 M38.8 34 H24.4 M96.4 34 H154"></path></g></g></g><g id="g-root-cp_3_g-3_18gxidt1n6lo9b-stroke" data-item-order="-314860" transform="translate(350, 164)"><g id="cp_3_g-3_18gxidt1n6lo9b-stroke" fill="none" stroke-linecap="round" stroke-linejoin="round" stroke-miterlimit="4" stroke="#f4f4f4" stroke-width="2" stroke-opacity="1"><g><path d="M 82 10L 139.6 10L 154 34L 139.6 58L 82 58L 96.4 34L 82 10ZM 38.8 10L 67.6 10L 82 34L 67.6 58L 38.8 58L 53.2 34L 38.8 10ZM 10 10L 24.4 10L 38.8 34L 24.4 58L 10 58L 24.4 34L 10 10ZM 82 34L 53.2 34M 38.8 34L 24.4 34M 96.4 34L 154 34M 82 70L 82 154"></path></g></g></g><g id="g-root-cp_4_g-4_1cwr0i91n6lo8w-fill" data-item-order="-314842" transform="translate(518, 164)"><g id="cp_4_g-4_1cwr0i91n6lo8w-fill-merged" stroke="none" fill="#4b533a" fill-opacity="1"><g><path d="M82 10 H139.6L154 34L139.6 58 H82L96.4 34L82 10 M38.8 10 H67.6L82 34L67.6 58 H38.8L53.2 34L38.8 10 M10 10 H24.4L38.8 34L24.4 58 H10L24.4 34L10 10 M82 34 H53.2 M38.8 34 H24.4 M96.4 34 H154"></path></g></g></g><g id="g-root-cp_4_g-4_1cwr0i91n6lo8w-stroke" data-item-order="-314842" transform="translate(518, 164)"><g id="cp_4_g-4_1cwr0i91n6lo8w-stroke" fill="none" stroke-linecap="round" stroke-linejoin="round" stroke-miterlimit="4" stroke="#f4f4f4" stroke-width="2" stroke-opacity="1"><g><path d="M 82 10L 139.6 10L 154 34L 139.6 58L 82 58L 96.4 34L 82 10ZM 38.8 10L 67.6 10L 82 34L 67.6 58L 38.8 58L 53.2 34L 38.8 10ZM 10 10L 24.4 10L 38.8 34L 24.4 58L 10 58L 24.4 34L 10 10ZM 82 34L 53.2 34M 38.8 34L 24.4 34M 96.4 34L 154 34M 82 70L 82 226"></path></g></g></g><g id="g-root-tx_growthin_141409d1n6lp1l-fill" data-item-order="0" transform="translate(135.04296875, 38)"><g id="tx_growthin_141409d1n6lp1l-fill-merged" stroke="none" fill="#f4f4f4" fill-opacity="1"><g><text style="font: bold 25px &quot;Shantell Sans&quot;, cursive; white-space: pre;" transform="translate(212.95703125, 25)" font-weight="bold" font-size="25px" font-family="'Shantell Sans', cursive"><tspan x="-200.96" y="16.5" dominant-baseline="ideographic">Growth Intelligence Workflow</tspan></text></g></g></g><g id="g-root-tx_growthin_141409d1n6lp1l-stroke" data-item-order="0" transform="translate(135.04296875, 38)"></g><g id="g-root-tx_signalan_qpnhw11n6lqmi-fill" data-item-order="0" transform="translate(43.78125, 92)"><g id="tx_signalan_qpnhw11n6lqmi-fill-merged" stroke="none" fill="#f4f4f4" fill-opacity="1"><g><text style="font: 20px &quot;Shantell Sans&quot;, cursive; white-space: pre;" transform="translate(52.21875, 34)" font-size="20px" font-family="'Shantell Sans', cursive"><tspan x="-29.66" y="1.5" dominant-baseline="ideographic">Signal </tspan><tspan x="-40.22" y="25.5" dominant-baseline="ideographic">Analysis</tspan></text></g></g></g><g id="g-root-tx_signalan_qpnhw11n6lqmi-stroke" data-item-order="0" transform="translate(43.78125, 92)"></g><g id="g-root-tx_aiscorin_maggup1n6lo8z-fill" data-item-order="0" transform="translate(200.6875, 116)"><g id="tx_aiscorin_maggup1n6lo8z-fill-merged" stroke="none" fill="#f4f4f4" fill-opacity="1"><g><text style="font: 20px &quot;Shantell Sans&quot;, cursive; white-space: pre;" transform="translate(63.3125, 22)" font-size="20px" font-family="'Shantell Sans', cursive"><tspan x="-51.31" y="13.5" dominant-baseline="ideographic">AI Scoring</tspan></text></g></g></g><g id="g-root-tx_aiscorin_maggup1n6lo8z-stroke" data-item-order="0" transform="translate(200.6875, 116)"></g><g id="g-root-tx_outreach_detglt1n6lp1o-fill" data-item-order="0" transform="translate(375.79296875, 116)"><g id="tx_outreach_detglt1n6lp1o-fill-merged" stroke="none" fill="#43dd93" fill-opacity="1"><g><text style="font: 20px &quot;Shantell Sans&quot;, cursive; white-space: pre;" transform="translate(56.20703125, 22)" font-size="20px" font-family="'Shantell Sans', cursive"><tspan x="-44.21" y="13.5" dominant-baseline="ideographic">Outreach</tspan></text></g></g></g><g id="g-root-tx_outreach_detglt1n6lp1o-stroke" data-item-order="0" transform="translate(375.79296875, 116)"></g><g id="g-root-tx_pipeline_detglt1n6lp1p-fill" data-item-order="0" transform="translate(550.875, 116)"><g id="tx_pipeline_detglt1n6lp1p-fill-merged" stroke="none" fill="#a6da37" fill-opacity="1"><g><text style="font: 20px &quot;Shantell Sans&quot;, cursive; white-space: pre;" transform="translate(49.125, 22)" font-size="20px" font-family="'Shantell Sans', cursive"><tspan x="-37.13" y="13.5" dominant-baseline="ideographic">Pipeline</tspan></text></g></g></g><g id="g-root-tx_pipeline_detglt1n6lp1p-stroke" data-item-order="0" transform="translate(550.875, 116)"></g><g id="g-root-tx_datacoll_8yzyhd1n6lpty-fill" data-item-order="0" transform="translate(36.83203125, 320)"><g id="tx_datacoll_8yzyhd1n6lpty-fill-merged" stroke="none" fill="#4f91fc" fill-opacity="1"><g><text style="font: 20px &quot;Shantell Sans&quot;, cursive; white-space: pre;" transform="translate(59.16796875, 34)" font-size="20px" font-family="'Shantell Sans', cursive"><tspan x="-22.81" y="1.5" dominant-baseline="ideographic">Data </tspan><tspan x="-47.17" y="25.5" dominant-baseline="ideographic">Collection</tspan></text></g></g></g><g id="g-root-tx_datacoll_8yzyhd1n6lpty-stroke" data-item-order="0" transform="translate(36.83203125, 320)"></g><g id="g-root-tx_personal_1cxzyoh1n6lqf6-fill" data-item-order="0" transform="translate(355.171875, 320)"><g id="tx_personal_1cxzyoh1n6lqf6-fill-merged" stroke="none" fill="#43dd93" fill-opacity="1"><g><text style="font: 20px &quot;Shantell Sans&quot;, cursive; white-space: pre;" transform="translate(76.828125, 34)" font-size="20px" font-family="'Shantell Sans', cursive"><tspan x="-64.83" y="1.5" dominant-baseline="ideographic">Personalized </tspan><tspan x="-63.85" y="25.5" dominant-baseline="ideographic">Engagement</tspan></text></g></g></g><g id="g-root-tx_personal_1cxzyoh1n6lqf6-stroke" data-item-order="0" transform="translate(355.171875, 320)"></g><g id="g-root-tx_aianalyz_3cy8h1n6lqmn-fill" data-item-order="0" transform="translate(17.3125, 380)"><g id="tx_aianalyz_3cy8h1n6lqmn-fill-merged" stroke="none" fill="#f4f4f4" fill-opacity="1"><g><text style="font: 15px &quot;Shantell Sans&quot;, cursive; white-space: pre;" transform="translate(78.6875, 55)" font-size="15px" font-family="'Shantell Sans', cursive"><tspan x="-46.77" y="-26" dominant-baseline="ideographic">AI analyzes </tspan><tspan x="-25.85" y="-8" dominant-baseline="ideographic">intent, </tspan><tspan x="-66.69" y="10" dominant-baseline="ideographic">firmographic, and </tspan><tspan x="-53.88" y="28" dominant-baseline="ideographic">technographic </tspan><tspan x="-19.63" y="46" dominant-baseline="ideographic">data</tspan></text></g></g></g><g id="g-root-tx_aianalyz_3cy8h1n6lqmn-stroke" data-item-order="0" transform="translate(17.3125, 380)"></g><g id="g-root-tx_opportun_1uoni351n6lr7s-fill" data-item-order="0" transform="translate(185.89453125, 392)"><g id="tx_opportun_1uoni351n6lr7s-fill-merged" stroke="none" fill="#1ac3fb" fill-opacity="1"><g><text style="font: 20px &quot;Shantell Sans&quot;, cursive; white-space: pre;" transform="translate(78.3125, 34)" font-size="20px" font-family="'Shantell Sans', cursive"><tspan x="-57.44" y="1.5" dominant-baseline="ideographic">Opportunity </tspan><tspan x="-66.31" y="25.5" dominant-baseline="ideographic">Identification</tspan></text></g></g></g><g id="g-root-tx_opportun_1uoni351n6lr7s-stroke" data-item-order="0" transform="translate(185.89453125, 392)"></g><g id="g-root-tx_aicrafts_142cyfl1n6lr7v-fill" data-item-order="0" transform="translate(354.0703125, 380)"><g id="tx_aicrafts_142cyfl1n6lr7v-fill-merged" stroke="none" fill="#f4f4f4" fill-opacity="1"><g><text style="font: 15px &quot;Shantell Sans&quot;, cursive; white-space: pre;" transform="translate(77.9296875, 46)" font-size="15px" font-family="'Shantell Sans', cursive"><tspan x="-51.96" y="-17" dominant-baseline="ideographic">AI crafts and </tspan><tspan x="-54.68" y="1" dominant-baseline="ideographic">delivers multi-</tspan><tspan x="-65.93" y="19" dominant-baseline="ideographic">channel outreach </tspan><tspan x="-39.29" y="37" dominant-baseline="ideographic">sequences</tspan></text></g></g></g><g id="g-root-tx_aicrafts_142cyfl1n6lr7v-stroke" data-item-order="0" transform="translate(354.0703125, 380)"></g><g id="g-root-tx_qualifie_zn5xe91n6louc-fill" data-item-order="0" transform="translate(531.921875, 392)"><g id="tx_qualifie_zn5xe91n6louc-fill-merged" stroke="none" fill="#a6da37" fill-opacity="1"><g><text style="font: 20px &quot;Shantell Sans&quot;, cursive; white-space: pre;" transform="translate(68.24609375, 34)" font-size="20px" font-family="'Shantell Sans', cursive"><tspan x="-56.25" y="1.5" dominant-baseline="ideographic">Qualified &amp; </tspan><tspan x="-49.39" y="25.5" dominant-baseline="ideographic">Managed</tspan></text></g></g></g><g id="g-root-tx_qualifie_zn5xe91n6louc-stroke" data-item-order="0" transform="translate(531.921875, 392)"></g><g id="g-root-tx_predicti_1q9gh1t1n6lou9-fill" data-item-order="0" transform="translate(182, 452)"><g id="tx_predicti_1q9gh1t1n6lou9-fill-merged" stroke="none" fill="#f4f4f4" fill-opacity="1"><g><text style="font: 15px &quot;Shantell Sans&quot;, cursive; white-space: pre;" transform="translate(82.20703125, 37)" font-size="15px" font-family="'Shantell Sans', cursive"><tspan x="-64.82" y="-8" dominant-baseline="ideographic">Predictive models </tspan><tspan x="-70.21" y="10" dominant-baseline="ideographic">score prospects for </tspan><tspan x="-69.55" y="28" dominant-baseline="ideographic">highest probability</tspan></text></g></g></g><g id="g-root-tx_predicti_1q9gh1t1n6lou9-stroke" data-item-order="0" transform="translate(182, 452)"></g><g id="g-root-tx_qualifie_qrix5d1n6lpn1-fill" data-item-order="0" transform="translate(518, 452)"><g id="tx_qualifie_qrix5d1n6lpn1-fill-merged" stroke="none" fill="#f4f4f4" fill-opacity="1"><g><text style="font: 15px &quot;Shantell Sans&quot;, cursive; white-space: pre;" transform="translate(82.16796875, 46)" font-size="15px" font-family="'Shantell Sans', cursive"><tspan x="-70.17" y="-17" dominant-baseline="ideographic">Qualified leads are </tspan><tspan x="-51.63" y="1" dominant-baseline="ideographic">managed and </tspan><tspan x="-52.5" y="19" dominant-baseline="ideographic">tracked in the </tspan><tspan x="-29.02" y="37" dominant-baseline="ideographic">pipeline</tspan></text></g></g></g><g id="g-root-tx_qualifie_qrix5d1n6lpn1-stroke" data-item-order="0" transform="translate(518, 452)"></g></g></g></svg>