<?xml version="1.0" encoding="utf-8" standalone="yes"?>
<!DOCTYPE svg PUBLIC "-//W3C//DTD SVG 1.1//EN" "http://www.w3.org/Graphics/SVG/1.1/DTD/svg11.dtd">
<svg style="fill:none;stroke:none;fill-rule:evenodd;clip-rule:evenodd;stroke-linecap:round;stroke-linejoin:round;stroke-miterlimit:1.5;" version="1.1" xmlns="http://www.w3.org/2000/svg" xmlns:xlink="http://www.w3.org/1999/xlink" width="452" height="925" viewBox="0 0 452 925"><style class="text-font-style fontImports" data-font-family="Shantell Sans">@import url(https://fonts.googleapis.com/css2?family=Shantell+Sans:wght@300..800&amp;amp;display=block);</style><g id="items" style="isolation: isolate"><g id="blend" style="mix-blend-mode: normal"><g id="g-root-di_1qbzllt1po89ok-fill" data-item-order="-24401" transform="translate(14, 610)"><g id="di_1qbzllt1po89ok-fill-merged" stroke="none" fill="#815d3b" fill-opacity="1"><g><path d="M11.7 53.1L13.6 66.5L34.5 72.2L31.5 50.4L11.7 53.1 M34.5 72.2L52.8 48.9L33.3 41.4L13.6 66.5L34.5 72.2 M33.3 41.4L31.2 70.9L50.9 77.1L52.8 48.9L33.3 41.4 M50.9 77.1L73.1 39.4L52.6 34.8L31.2 70.9L50.9 77.1 M52.6 34.8L57.1 83.3L77.4 85.4L73.1 39.4L52.6 34.8 M77.4 85.4L94.9 27.5L74.6 25.4L57.1 83.3L77.4 85.4 M74.6 25.4L80.1 86.8L100.4 88.6L94.9 27.5L74.6 25.4 M100.4 88.6L119.6 19.2L99.7 16.3L80.1 86.8L100.4 88.6 M99.7 16.3L98.2 95L118.2 97.4L119.6 19.2L99.7 16.3 M118.2 97.4L137 10.6L116.8 9.3L98.2 95L118.2 97.4 M116.8 9.3L124.8 105.3L144.9 106.2L137 10.6L116.8 9.3 M144.9 106.2L159 22.1L138.9 20.9L124.8 105.3L144.9 106.2 M138.9 20.9L142.1 95.3L162.2 97.7L159 22.1L138.9 20.9 M162.2 97.7L182.8 26.2L162.7 23.6L142.1 95.3L162.2 97.7 M162.7 23.6L164.4 91.5L184.5 95.3L182.8 26.2L162.7 23.6 M184.5 95.3L207 42L187.3 37.3L164.4 91.5L184.5 95.3 M187.3 37.3L184.6 73.9L204.1 81.3L207 42L187.3 37.3 M204.1 81.3L227.3 50.7L207.1 44.4L184.6 73.9L204.1 81.3 M207.1 44.4L207.9 63.7L228.4 74.9L227.3 50.7L207.1 44.4 M228.4 74.9L248.3 63.2L233.7 48.6L207.9 63.7L228.4 74.9 M233.7 48.6L228.1 58.1L245.4 68.2L248.3 63.2L233.7 48.6" fill-rule="nonzero"></path></g></g></g><g id="g-root-di_1qbzllt1po89ok-stroke" data-item-order="-24401" transform="translate(14, 610)"><g id="di_1qbzllt1po89ok-stroke" fill="none" stroke-linecap="round" stroke-linejoin="round" stroke-miterlimit="4" stroke="#f4f4f4" stroke-width="4" stroke-opacity="1"><g><path d="M 10 60.27L 131.36 110.53L 252.71 60.27L 131.36 10ZM 10 60.3C 30.8 68.2 51.2 77 71.7 85.8C 91.4 94.3 111.3 102.6 131.4 110.5C 151.4 103.3 171.2 95.5 190.3 86.1C 210.5 76.2 232.4 69.9 252.7 60.3C 232.7 52.5 213 43.8 193.1 35.6C 172.5 27.1 152.5 17.2 131.4 10C 118.7 14.9 105.5 18.9 93.7 25.6C 80.2 33.3 64.6 36.6 50.7 43.4C 37.5 49.9 23.8 55.3 10 60.3"></path></g></g></g><g id="g-root-ro_1urt3q91po88wa-fill" data-item-order="-12875" transform="translate(45.945068359375, 482)"><g id="ro_1urt3q91po88wa-fill-merged" stroke="none" fill="#346778" fill-opacity="1"><g><path d="M194.4 77.8L192.9 73.1L169.3 64.7L175.3 83.7L194.4 77.8 M169.3 64.7L152.2 76L169.6 88.4L192.9 73.1L169.3 64.7 M169.6 88.4L187.2 19.9L168.6 11.9L152.2 76L169.6 88.4 M168.6 11.9L126.3 80.1L144.7 88.5L187.2 19.9L168.6 11.9 M144.7 88.5L167.3 16.5L149.2 7.5L126.3 80.1L144.7 88.5 M149.2 7.5L104.4 71L122.5 80.1L167.3 16.5L149.2 7.5 M122.5 80.1L144.2 14.4L126.1 5.7L104.4 71L122.5 80.1 M126.1 5.7L83 72.5L101.3 80.9L144.2 14.4L126.1 5.7 M101.3 80.9L121.3 14.1L103.1 5.1L83 72.5L101.3 80.9 M103.1 5.1L53 74L70.7 83.6L121.3 14.1L103.1 5.1 M70.7 83.6L95.8 17.4L78 7.9L53 74L70.7 83.6 M78 7.9L32 72.3L50.1 81.4L95.8 17.4L78 7.9 M50.1 81.4L71.5 14.1L53.1 5.9L32 72.3L50.1 81.4 M53.1 5.9L9.5 79.7L28.2 87.4L71.5 14.1L53.1 5.9 M28.2 87.4L45.7 17L28.1 5L9.5 79.7L28.2 87.4 M28.1 5L5.7 20.7L26.6 30.5L45.7 17L28.1 5 M26.6 30.5L25 10.7L5 12.3L5.7 20.7L26.6 30.5" fill-rule="nonzero"></path></g></g></g><g id="g-root-ro_1urt3q91po88wa-stroke" data-item-order="-12875" transform="translate(45.945068359375, 482)"><g id="ro_1urt3q91po88wa-stroke" fill="none" stroke-linecap="round" stroke-linejoin="round" stroke-miterlimit="4" stroke="#f4f4f4" stroke-width="4" stroke-opacity="1"><g><path d="M 22 10L 176.82 10C 176.82 10 188.82 10 188.82 22L 188.82 70C 188.82 70 188.82 82 176.82 82L 22 82C 22 82 10 82 10 70L 10 22C 10 22 10 10 22 10M 22 10C 47.1 8.7 72.2 10.5 97.3 10C 123.8 9.4 150.4 8 176.8 10C 176.8 10 190.4 10.1 188.8 22C 186.7 37.9 190.8 54.1 188.8 70C 188.8 70 188.8 80.9 176.8 82C 149.4 84.4 121.8 83.5 94.3 82C 70.2 80.7 46.1 81.6 22 82C 22 82 9.6 82 10 70C 10.5 54 9 38 10 22C 10 22 10 9.8 22 10"></path></g></g></g><g id="g-root-ro_3e6g11po6s5l-fill" data-item-order="-12351" transform="translate(49.581787109375, 226)"><g id="ro_3e6g11po6s5l-fill-merged" stroke="none" fill="#346778" fill-opacity="1"><g><path d="M183 84.2L186.9 77.1L172.8 61.1L165.4 74.7L183 84.2 M172.8 61.1L142.3 72.9L158.9 87.9L186.9 77.1L172.8 61.1 M158.9 87.9L177.9 18.6L159.4 10.3L142.3 72.9L158.9 87.9 M159.4 10.3L119.5 72.4L137.5 81.5L177.9 18.6L159.4 10.3 M137.5 81.5L162.3 16.1L144.3 7L119.5 72.4L137.5 81.5 M144.3 7L100.7 75.6L119.3 83.6L162.3 16.1L144.3 7 M119.3 83.6L135.3 18.8L116.6 10.9L100.7 75.6L119.3 83.6 M116.6 10.9L78.4 71.3L96.9 79.6L135.3 18.8L116.6 10.9 M96.9 79.6L114.5 18.2L96.2 9.4L78.4 71.3L96.9 79.6 M96.2 9.4L50.2 73L67.8 82.9L114.5 18.2L96.2 9.4 M67.8 82.9L96.6 14.5L78.9 5.1L50.2 73L67.8 82.9 M78.9 5.1L34.9 73.1L53.4 81.4L96.6 14.5L78.9 5.1 M53.4 81.4L71.1 15.1L52.5 7.1L34.9 73.1L53.4 81.4 M52.5 7.1L9.3 77.2L28 85L71.1 15.1L52.5 7.1 M28 85L44.9 14.6L27.3 2.3L9.3 77.2L28 85 M27.3 2.3L10.7 13.6L26.9 26.8L44.9 14.6L27.3 2.3 M26.9 26.8L29.2 21.2L10.7 13.6L26.9 26.8" fill-rule="nonzero"></path></g></g></g><g id="g-root-ro_3e6g11po6s5l-stroke" data-item-order="-12351" transform="translate(49.581787109375, 226)"><g id="ro_3e6g11po6s5l-stroke" fill="none" stroke-linecap="round" stroke-linejoin="round" stroke-miterlimit="4" stroke="#f4f4f4" stroke-width="4" stroke-opacity="1"><g><path d="M 22 10L 169.55 10C 169.55 10 181.55 10 181.55 22L 181.55 70C 181.55 70 181.55 82 169.55 82L 22 82C 22 82 10 82 10 70L 10 22C 10 22 10 10 22 10M 22 10C 48.8 9.2 75.6 8.2 102.4 10C 124.7 11.5 147.1 9.9 169.6 10C 169.6 10 183 10.1 181.6 22C 179.6 37.9 181.9 54 181.6 70C 181.6 70 181.4 83.6 169.6 82C 145 78.7 120.1 83.1 95.3 82C 70.9 80.9 46.4 81.2 22 82C 22 82 9.5 82 10 70C 10.6 54 9 38 10 22C 10 22 10.1 8.9 22 10"></path></g></g></g><g id="g-root-ro_93eiap1po6ups-fill" data-item-order="-12203" transform="translate(50.609130859375, 354)"><g id="ro_93eiap1po6ups-fill-merged" stroke="none" fill="#346778" fill-opacity="1"><g><path d="M181.8 81.4L185.4 69.3L168.7 55.6L162.6 75.5L181.8 81.4 M168.7 55.6L137.1 72.7L153.1 86.8L185.4 69.3L168.7 55.6 M153.1 86.8L181 13.1L163.1 3.9L137.1 72.7L153.1 86.8 M163.1 3.9L112.1 79.6L130.2 88.5L181 13.1L163.1 3.9 M130.2 88.5L153.3 18.3L135.1 9.7L112.1 79.6L130.2 88.5 M135.1 9.7L96.5 71.2L114.7 79.7L153.3 18.3L135.1 9.7 M114.7 79.7L135.2 15.8L117.2 6.5L96.5 71.2L114.7 79.7 M117.2 6.5L63.5 77.4L81.3 87.1L135.2 15.8L117.2 6.5 M81.3 87.1L108.5 13L90.4 4.2L63.5 77.4L81.3 87.1 M90.4 4.2L43.9 78.9L61.8 87.9L108.5 13L90.4 4.2 M61.8 87.9L88.5 20.3L70.8 10.7L43.9 78.9L61.8 87.9 M70.8 10.7L23.3 78.5L41.6 87.2L88.5 20.3L70.8 10.7 M41.6 87.2L62.6 13.3L44.2 4.6L23.3 78.5L41.6 87.2 M44.2 4.6L8.5 55.3L27.3 63.3L62.6 13.3L44.2 4.6 M27.3 63.3L36.6 15.2L17 11.4L8.5 55.3L27.3 63.3" fill-rule="nonzero"></path></g></g></g><g id="g-root-ro_93eiap1po6ups-stroke" data-item-order="-12203" transform="translate(50.609130859375, 354)"><g id="ro_93eiap1po6ups-stroke" fill="none" stroke-linecap="round" stroke-linejoin="round" stroke-miterlimit="4" stroke="#f4f4f4" stroke-width="4" stroke-opacity="1"><g><path d="M 22 10L 167.49 10C 167.49 10 179.49 10 179.49 22L 179.49 70C 179.49 70 179.49 82 167.49 82L 22 82C 22 82 10 82 10 70L 10 22C 10 22 10 10 22 10M 22 10C 47.2 8.5 72.5 9.2 97.7 10C 120.9 10.7 144.2 9.5 167.5 10C 167.5 10 180.4 10 179.5 22C 178.3 38 179.9 54 179.5 70C 179.5 70 179.5 82 167.5 82C 141 82 114.5 81.8 88.1 82C 66 82.1 44 80.2 22 82C 22 82 8.5 81.9 10 70C 12 54.1 9.3 38 10 22C 10 22 10.2 12 22 10"></path></g></g></g><g id="g-root-ro_4il7hd1pof7r8-fill" data-item-order="-11460" transform="translate(226.823974609375, 766.533935546875)"><g id="ro_4il7hd1pof7r8-fill-merged" stroke="none" fill="#346778" fill-opacity="1"><g><path d="M172.7 70.3 H172.8L148.3 62.3L154.1 77.4L172.7 70.3 M148.3 62.3L129 74.8L145.4 88L172.8 70.3L148.3 62.3 M145.4 88L172.4 17.5L154.5 8.2L129 74.8L145.4 88 M154.5 8.2L107.5 77.3L125.8 86L172.4 17.5L154.5 8.2 M125.8 86L146.6 14.9L128.3 6.1L107.5 77.3L125.8 86 M128.3 6.1L81.4 72.9L99.6 81.8L146.6 14.9L128.3 6.1 M99.6 81.8L118.6 20.6L100.5 11.5L81.4 72.9L99.6 81.8 M100.5 11.5L56.2 71.4L73.4 81.7L118.6 20.6L100.5 11.5 M73.4 81.7L101.9 22.2L85.2 10.9L56.2 71.4L73.4 81.7 M85.2 10.9L30.9 70.8L48.2 81.5L101.9 22.2L85.2 10.9 M48.2 81.5L73.1 17.3L55.3 7.9L30.9 70.8L48.2 81.5 M55.3 7.9L10.9 73.1L28.6 82.7L73.1 17.3L55.3 7.9 M28.6 82.7L55.6 18.5L39.6 5L10.9 73.1L28.6 82.7 M39.6 5L9.5 23.9L27.1 36.5L55.6 18.5L39.6 5 M27.1 36.5L32.2 14.9L12.8 10.3L9.5 23.9L27.1 36.5" fill-rule="nonzero"></path></g></g></g><g id="g-root-ro_4il7hd1pof7r8-stroke" data-item-order="-11460" transform="translate(226.823974609375, 766.533935546875)"><g id="ro_4il7hd1pof7r8-stroke" fill="none" stroke-linecap="round" stroke-linejoin="round" stroke-miterlimit="4" stroke="#f4f4f4" stroke-width="4" stroke-opacity="1"><g><path d="M 22 10L 157.16 10C 157.16 10 169.16 10 169.16 22L 169.16 70C 169.16 70 169.16 82 157.16 82L 22 82C 22 82 10 82 10 70L 10 22C 10 22 10 10 22 10M 22 10C 44 10.6 66.1 10.4 88.1 10C 111.1 9.6 134.2 9.8 157.2 10C 157.2 10 169.3 10 169.2 22C 169 38 168 54 169.2 70C 169.2 70 169.2 81.7 157.2 82C 135 82.5 112.8 82.6 90.6 82C 67.7 81.4 44.9 82.1 22 82C 22 82 9.2 82 10 70C 11.1 54 10.9 38 10 22C 10 22 10.1 11.1 22 10"></path></g></g></g><g id="g-root-ro_90wly91pob0ud-fill" data-item-order="-10292" transform="translate(63.886474609375, 766.533935546875)"><g id="ro_90wly91pob0ud-fill-merged" stroke="none" fill="#346778" fill-opacity="1"><g><path d="M151.7 80.8L153.8 74.4L137.9 58.7L132.7 74.5L151.7 80.8 M137.9 58.7L109.6 68.6L123.9 84.8L153.8 74.4L137.9 58.7 M123.9 84.8L156.2 18.5L139.2 7.8L109.6 68.6L123.9 84.8 M139.2 7.8L83 78L100.4 88.3L156.2 18.5L139.2 7.8 M100.4 88.3L131.3 13.9L113.8 4L83 78L100.4 88.3 M113.8 4L64.4 71.2L81.9 81.1L131.3 13.9L113.8 4 M81.9 81.1L107.4 20.3L89.9 10L64.4 71.2L81.9 81.1 M89.9 10L42.3 70.8L59.8 80.8L107.4 20.3L89.9 10 M59.8 80.8L84.2 19L66.4 9.6L42.3 70.8L59.8 80.8 M66.4 9.6L20.7 76.3L38.4 85.8L84.2 19L66.4 9.6 M38.4 85.8L65.2 20.2L49.3 6.1L20.7 76.3L38.4 85.8 M49.3 6.1L6 30.2L21 44.7L65.2 20.2L49.3 6.1 M21 44.7L34.7 17.8L16.8 8.8L6 30.2L21 44.7" fill-rule="nonzero"></path></g></g></g><g id="g-root-ro_90wly91pob0ud-stroke" data-item-order="-10292" transform="translate(63.886474609375, 766.533935546875)"><g id="ro_90wly91pob0ud-stroke" fill="none" stroke-linecap="round" stroke-linejoin="round" stroke-miterlimit="4" stroke="#f4f4f4" stroke-width="4" stroke-opacity="1"><g><path d="M 22 10L 140.94 10C 140.94 10 152.94 10 152.94 22L 152.94 70C 152.94 70 152.94 82 140.94 82L 22 82C 22 82 10 82 10 70L 10 22C 10 22 10 10 22 10M 22 10C 42.6 10.9 63.2 9.2 83.8 10C 102.8 10.7 121.9 10.9 140.9 10C 140.9 10 152.2 10 152.9 22C 153.9 38 152 54 152.9 70C 152.9 70 152.9 81.2 140.9 82C 120 83.3 99 83.1 78 82C 59.4 81.1 40.6 80.8 22 82C 22 82 9.5 82 10 70C 10.6 54 9.4 38 10 22C 10 22 10 9.7 22 10"></path></g></g></g><g id="g-root-ro_4hc9b51po6scp-fill" data-item-order="-7201" transform="translate(68.679443359375, 116)"><g id="ro_4hc9b51po6scp-fill-merged" stroke="none" fill="#6b6b6b" fill-opacity="1"><g><path d="M146.9 56.3L147 51.3L127.1 39L126.9 56L146.9 56.3 M127.1 39L102.1 51.7L119.3 65.4L147 51.3L127.1 39 M119.3 65.4L132.5 13.9L113.8 6.1L102.1 51.7L119.3 65.4 M113.8 6.1L82.9 57.7L101.4 65.8L132.5 13.9L113.8 6.1 M101.4 65.8L115 19.8L97.1 9.8L82.9 57.7L101.4 65.8 M97.1 9.8L57.2 54.4L75 64.5L115 19.8L97.1 9.8 M75 64.5L91.1 13.9L72.7 6L57.2 54.4L75 64.5 M72.7 6L42.6 60.4L61.3 67.9L91.1 13.9L72.7 6 M61.3 67.9L73.8 20.9L55.6 11.3L42.6 60.4L61.3 67.9 M55.6 11.3L18.5 53.5L37 62.8L73.8 20.9L55.6 11.3 M37 62.8L45.4 22.3L27.8 8.8L18.5 53.5L37 62.8 M27.8 8.8L7.1 19.3L25.5 32.5L45.4 22.3L27.8 8.8 M25.5 32.5L27.9 15.7L8.1 12.8L7.1 19.3L25.5 32.5" fill-rule="nonzero"></path></g></g></g><g id="g-root-ro_4hc9b51po6scp-stroke" data-item-order="-7201" transform="translate(68.679443359375, 116)"><g id="ro_4hc9b51po6scp-stroke" fill="none" stroke-linecap="round" stroke-linejoin="round" stroke-miterlimit="4" stroke="#f4f4f4" stroke-width="4" stroke-opacity="1"><g><path d="M 22 10L 131.35 10C 131.35 10 143.35 10 143.35 22L 143.35 52C 143.35 52 143.35 64 131.35 64L 22 64C 22 64 10 64 10 52L 10 22C 10 22 10 10 22 10M 22 10C 58.5 10.1 94.9 10.2 131.4 10C 131.3 10 143.6 10 143.4 22C 143.1 32 144.9 42.1 143.4 52C 143.4 52 143.3 63.6 131.4 64C 112.9 64.7 94.4 63 76 64C 58 65 40 63.3 22 64C 22 64 10.4 64 10 52C 9.7 42 10.5 32 10 22C 10 22 10.1 11.6 22 10"></path></g></g></g><g id="g-root-tx_ingest_8wjach1po6uq7-fill" data-item-order="0" transform="translate(116.679443359375, 131)"><g id="tx_ingest_8wjach1po6uq7-fill-merged" stroke="none" fill="#f4f4f4" fill-opacity="1"><g><text style="font: bold 20px &quot;Shantell Sans&quot;, cursive; white-space: pre;" transform="translate(10, 22)" font-weight="bold" font-size="20px" font-family="'Shantell Sans', cursive"><tspan x="2" y="13.5" dominant-baseline="ideographic">Ingest</tspan></text></g></g></g><g id="g-root-tx_ingest_8wjach1po6uq7-stroke" data-item-order="0" transform="translate(116.679443359375, 131)"></g><g id="g-root-ic_scan_dccsgx1po6ups-fill" data-item-order="0" transform="translate(80.679443359375, 128)"></g><g id="g-root-ic_scan_dccsgx1po6ups-stroke" data-item-order="0" transform="translate(80.679443359375, 128)"><g id="ic_scan_dccsgx1po6ups-stroke" fill="none" stroke-linecap="round" stroke-linejoin="round" stroke-miterlimit="4" stroke="#f4f4f4" stroke-width="2" stroke-opacity="1"><g><path d="M 39.375 34.375C 39.375 37.827499 36.577499 39.375 33.125 39.375L 16.875 39.375C 13.4225 39.375 10.625 37.827499 10.625 34.375ZM 10.625 34.375L 15.625 21.875L 34.375 21.875L 39.375 34.375M 36.875 13.125L 13.125 13.125L 15.625 21.875L 34.375 21.875L 36.875 13.125ZM 13.125 13.125C 13.125 11.744288 14.244288 10.625 15.625 10.625L 34.375 10.625C 35.755714 10.625 36.875 11.744288 36.875 13.125ZM 31.875 24.375L 18.125 24.375L 15.625 31.875L 34.375 31.875L 31.875 24.375ZM 30.3125 36.5625C 30.485088 36.5625 30.625 36.702412 30.625 36.875C 30.625 37.047588 30.485088 37.1875 30.3125 37.1875C 30.139912 37.1875 30 37.047588 30 36.875C 30 36.702412 30.139912 36.5625 30.3125 36.5625M 34.0625 36.5625C 34.235088 36.5625 34.375 36.702412 34.375 36.875C 34.375 37.047588 34.235088 37.1875 34.0625 37.1875C 33.889912 37.1875 33.75 37.047588 33.75 36.875C 33.75 36.702412 33.889912 36.5625 34.0625 36.5625M 39.375 34.375C 40 37.75 36.625 39.5 33.125 39.375C 27.75 39.25 22.25 39.25 16.875 39.375C 13.375 39.5 11.125 37.75 10.625 34.375C 20 32.5 29.75 34 39.375 34.375M 10.625 34.375C 12.875 30.5 13.875 26 15.625 21.875C 21.875 21.625 28.125 21.25 34.375 21.875C 37.25 25.375 38.25 30 39.375 34.375M 36.875 13.125C 29 13.25 21 12.75 13.125 13.125C 13.75 16.125 15.125 18.875 15.625 21.875C 21.75 22.75 28.375 23.5 34.375 21.875C 36.125 19.375 36.625 16.125 36.875 13.125M 13.125 13.125C 12.875 11.75 14.25 10.875 15.625 10.625C 21.75 9.5 28.25 9.75 34.375 10.625C 35.75 10.875 36.875 11.75 36.875 13.125C 29 13.875 21 13.125 13.125 13.125M 31.875 24.375C 27.375 25.25 22.75 24.25 18.125 24.375C 17 26.75 16.75 29.5 15.625 31.875C 21.875 32.125 28.125 31.25 34.375 31.875C 32.875 29.75 32.625 26.875 31.875 24.375M 30.375 36.625C 30.5 36.5 30.625 36.75 30.625 36.875C 30.625 37 30.5 37.25 30.375 37.25C 30.125 37.125 30 37 30 36.875C 30 36.75 30.125 36.5 30.375 36.625M 34.125 36.625C 34.25 36.5 34.375 36.75 34.375 36.875C 34.375 37 34.25 37.125 34.125 37.25C 33.875 37.25 33.75 37 33.75 36.875C 33.75 36.75 33.875 36.5 34.125 36.625"></path></g></g></g><g id="g-root-tx_classify_4il7hd1po6uj3-fill" data-item-order="0" transform="translate(97.581787109375, 238)"><g id="tx_classify_4il7hd1po6uj3-fill-merged" stroke="none" fill="#f4f4f4" fill-opacity="1"><g><text style="font: bold 20px &quot;Shantell Sans&quot;, cursive; white-space: pre;" transform="translate(10, 34)" font-weight="bold" font-size="20px" font-family="'Shantell Sans', cursive"><tspan x="2" y="1.5" dominant-baseline="ideographic">Classify &amp; </tspan><tspan x="2" y="25.5" dominant-baseline="ideographic">Parse</tspan></text></g></g></g><g id="g-root-tx_classify_4il7hd1po6uj3-stroke" data-item-order="0" transform="translate(97.581787109375, 238)"></g><g id="g-root-ic_lock_4nl0691po6uq7-fill" data-item-order="0" transform="translate(62.609130859375, 375)"></g><g id="g-root-ic_lock_4nl0691po6uq7-stroke" data-item-order="0" transform="translate(62.609130859375, 375)"><g id="ic_lock_4nl0691po6uq7-stroke" fill="none" stroke-linecap="round" stroke-linejoin="round" stroke-miterlimit="4" stroke="#f4f4f4" stroke-width="2" stroke-opacity="1"><g><path d="M 25.953749 32.184998L 13.36125 32.184998C 11.918693 32.18362 10.749999 31.013809 10.75 29.571251L 10.75 13.23875C 10.749999 11.796191 11.918693 10.62638 13.36125 10.625L 32.96125 10.625C 34.404297 10.62569 35.573753 11.795704 35.573753 13.23875L 35.57375 21.158751M 10.7475 15.72875L 35.57375 15.72875M 10.7475 26.5725L 25.953749 26.5725M 10.7475 21.158751L 35.57375 21.158751M 20.887501 15.72875L 20.887501 32.184998M 28.157499 15.72875L 28.157499 24.50375M 28.545 31.940001C 28.545 30.913441 29.37719 30.081251 30.403749 30.081251L 37.393753 30.081251C 38.419334 30.082628 39.25 30.914417 39.25 31.940001L 39.25 37.516251C 39.25 38.541836 38.419334 39.373619 37.393749 39.375L 30.403749 39.375C 29.37719 39.375 28.545 38.542809 28.545 37.516251ZM 33.89875 24.5L 33.89875 24.5C 31.886976 24.541687 30.289545 26.2057 30.33 28.217499L 30.33 30.077499L 37.467503 30.077499L 37.467503 28.221249C 37.510056 26.207998 35.912018 24.541676 33.89875 24.5ZM 33.89875 33.42625C 33.349682 33.403801 32.842079 33.717323 32.616337 34.218346C 32.390594 34.719368 32.492027 35.307301 32.872601 35.703716C 33.253178 36.100132 33.836487 36.225449 34.346291 36.020313C 34.856102 35.815178 35.190052 35.320782 35.190002 34.771252C 35.204643 34.043343 34.626644 33.441284 33.89875 33.42625L 33.89875 33.42625M 26 32.125C 22 33.5 17.5 32.625 13.375 32.125C 11.875 32 10.5 31 10.75 29.625C 11.875 24.25 10.5 18.625 10.75 13.25C 10.875 11.75 12 11.125 13.375 10.625C 19.375 8.125 26.5 11.125 33 10.625C 34.375 10.5 36.125 11.875 35.625 13.25C 34.625 15.625 36.375 18.625 35.625 21.125M 10.75 15.75C 19 14.875 27.375 17 35.625 15.75M 10.75 26.625C 15.875 26.5 20.875 26.625 26 26.625M 10.75 21.125C 18.875 22.875 27.375 20.25 35.625 21.125M 20.875 15.75C 22.25 21 20.25 26.75 20.875 32.125M 28.125 15.75C 27.25 18.5 27.625 21.625 28.125 24.5M 28.5 32C 28.625 30.875 29.375 30.375 30.375 30.125C 32.625 29.375 35.125 30.75 37.375 30.125C 38.375 29.75 39 31 39.25 32C 39.75 33.75 39.75 35.75 39.25 37.5C 39 38.5 38.375 39.125 37.375 39.375C 35.125 40 32.75 39.5 30.375 39.375C 29.375 39.25 28.875 38.5 28.5 37.5C 27.875 35.75 28.25 33.75 28.5 32M 33.875 24.5C 31.875 24.875 30.25 26.25 30.375 28.25C 30.375 28.875 30.125 29.5 30.375 30.125C 32.75 29.875 35.125 30.625 37.5 30.125C 37.25 29.5 37.25 28.875 37.5 28.25C 38 26.25 35.875 23.875 33.875 24.5M 33.875 33.375C 33.375 33.625 32.875 33.75 32.625 34.25C 32.375 34.75 32.5 35.25 32.875 35.75C 33.25 36.125 33.875 36.25 34.375 36C 34.875 35.75 35 35.25 35.25 34.75C 35.375 34.125 34.625 33.375 33.875 33.375"></path></g></g></g><g id="g-root-tx_extractv_dj80f51po6txi-fill" data-item-order="0" transform="translate(98.609130859375, 366)"><g id="tx_extractv_dj80f51po6txi-fill-merged" stroke="none" fill="#f4f4f4" fill-opacity="1"><g><text style="font: bold 20px &quot;Shantell Sans&quot;, cursive; white-space: pre;" transform="translate(10, 34)" font-weight="bold" font-size="20px" font-family="'Shantell Sans', cursive"><tspan x="2" y="1.5" dominant-baseline="ideographic">Extract &amp; </tspan><tspan x="2" y="25.5" dominant-baseline="ideographic">Validate</tspan></text></g></g></g><g id="g-root-tx_extractv_dj80f51po6txi-stroke" data-item-order="0" transform="translate(98.609130859375, 366)"></g><g id="g-root-ic_prev_dgq42p1pob024-fill" data-item-order="0" transform="translate(75.886474609375, 787.533935546875)"></g><g id="g-root-ic_prev_dgq42p1pob024-stroke" data-item-order="0" transform="translate(75.886474609375, 787.533935546875)"><g id="ic_prev_dgq42p1pob024-stroke" fill="none" stroke-linecap="round" stroke-linejoin="round" stroke-miterlimit="4" stroke="#f4f4f4" stroke-width="2" stroke-opacity="1"><g><path d="M 11.25 21.25L 15 26.875L 19.375 21.875M 15 26.875C 14.583013 23.51301 15.575464 20.128304 17.74192 17.523819C 19.908377 14.919336 23.055786 13.327162 26.4375 13.125C 32.995026 12.884683 38.5061 18.005104 38.747692 24.562584C 38.989285 31.120064 33.86993 36.632133 27.3125 36.874996M 32.5 26.1C 31.895884 25.11725 31.595806 23.977829 31.637499 22.824999L 31.637499 21.487499C 31.726242 19.784592 30.868217 18.171654 29.406473 17.293545C 27.944729 16.415438 26.117771 16.415438 24.656027 17.293545C 23.194283 18.171654 22.33626 19.784592 22.425001 21.487501L 22.424999 22.825001C 22.46385 23.975842 22.168629 25.113314 21.575001 26.1M 22.4125 22.25C 24.183786 22.248909 25.86713 21.477945 27.025 20.137499C 28.180014 21.474651 29.858078 22.245285 31.625 22.25M 31.075001 22.225C 30.955448 24.377825 29.174891 26.062243 27.018751 26.062243C 24.86261 26.062243 23.082054 24.377825 22.962502 22.225M 33.125 31.875C 31.960667 29.575672 29.60232 28.126415 27.025 28.126415C 24.447681 28.126415 22.089333 29.575672 20.924999 31.875M 11.25 21.25C 12.25 23.25 13.5 25.25 15 26.875C 17 25.75 18.5 23.875 19.375 21.875M 15 26.875C 13.875 23.625 15.25 19.75 17.75 17.5C 20.25 15.25 23 13.125 26.5 13.125C 33 12.5 37.75 18.125 38.75 24.625C 39.75 31 33.875 36.125 27.25 36.875M 32.5 26.125C 32 25.125 31.875 24 31.625 22.875C 31.5 22.375 31.5 21.875 31.625 21.5C 31.875 19.75 30.5 18.625 29.375 17.25C 28.375 15.875 25.75 16 24.625 17.25C 23.5 18.625 22 19.875 22.375 21.5C 22.5 21.875 22.625 22.375 22.375 22.875C 22 23.875 22.375 25.25 21.625 26.125M 22.375 22.25C 24.125 22.625 25.5 21 27 20.125C 27.625 21.75 29.875 22.625 31.625 22.25M 31.125 22.25C 31.25 24.375 29.125 26.25 27 26C 24.875 25.875 23.5 24.25 23 22.25M 33.125 31.875C 32 29.625 29.625 27.75 27 28.125C 24.5 28.5 22.125 29.625 20.875 31.875"></path></g></g></g><g id="g-root-ic_robo_8yeplt1po6uio-fill" data-item-order="0" transform="translate(61.581787109375, 247)"></g><g id="g-root-ic_robo_8yeplt1po6uio-stroke" data-item-order="0" transform="translate(61.581787109375, 247)"><g id="ic_robo_8yeplt1po6uio-stroke" fill="none" stroke-linecap="round" stroke-linejoin="round" stroke-miterlimit="4" stroke="#f4f4f4" stroke-width="2" stroke-opacity="1"><g><path d="M 36.991249 25.497375L 36.991249 25.497375C 37.58625 24.902374 37.918747 24.094376 37.914749 23.252874L 37.877251 15.300138C 37.867626 13.242887 36.202248 11.57755 34.145 11.567838L 26.441 11.53145C 25.44025 11.526712 24.47925 11.922162 23.771626 12.629775L 11.7702 24.631374C 10.793902 25.607626 10.793906 27.1905 11.770212 28.166874L 21.278288 37.674873C 22.254601 38.651249 23.8375 38.651249 24.813875 37.674873L 25.307375 37.181374M 31.169374 16.651875C 31.169374 17.63155 31.962626 18.427738 32.945248 18.427738C 33.924999 18.427738 34.721123 17.634512 34.721123 16.651875C 34.721123 15.669225 33.928001 14.87305 32.945248 14.87305C 31.965626 14.87305 31.169374 15.666263 31.169374 16.648912L 31.169374 16.651875ZM 31.106251 30.99625L 36.588749 30.99625C 36.588749 30.99625 39.088749 30.99625 39.088749 33.49625L 39.088749 36.651249C 39.088749 36.651249 39.088749 39.151249 36.588749 39.151249L 31.106251 39.151249C 31.106251 39.151249 28.606251 39.151249 28.606251 36.651249L 28.606251 33.49625C 28.606251 33.49625 28.606251 30.99625 31.106251 30.99625M 10 10M 33.847626 27.779625L 33.847626 30.996124M 10 10M 32.128876 34.348499L 32.128876 35.800751M 10 10M 35.566376 34.348499L 35.566376 35.800751M 37 25.5C 37.375 24.75 38 24.125 37.875 23.25C 37.75 20.625 38.25 17.875 37.875 15.25C 37.625 13.25 36.25 11.5 34.125 11.625C 31.625 11.625 29 11.875 26.5 11.5C 25.5 11.375 24.25 11.75 23.75 12.625C 20.875 17.5 15.875 20.75 11.75 24.625C 10.75 25.625 11 27 11.75 28.125C 14.375 31.875 17.875 34.75 21.25 37.625C 22.25 38.625 24.125 38.875 24.875 37.625C 24.875 37.5 25.25 37.375 25.25 37.125M 31.125 16.625C 31 17.625 32 18.375 33 18.375C 33.875 18.5 35 17.625 34.75 16.625C 34.5 15.75 33.875 14.75 33 14.875C 32 15 31.375 15.75 31.125 16.625M 31.125 31C 32.875 31.25 34.75 31.25 36.625 31C 36.625 31 39.5 31 39.125 33.5C 38.875 34.5 38.75 35.625 39.125 36.625C 39.125 36.625 39 38.75 36.625 39.125C 34.75 39.5 32.875 39.5 31.125 39.125C 31.125 39.125 28.125 39.125 28.625 36.625C 28.75 35.625 28.375 34.5 28.625 33.5C 28.625 33.5 28.625 30.625 31.125 31M 10 10M 33.875 27.75C 33.625 28.875 33.75 29.875 33.875 31M 10 10M 32.125 34.375C 32.125 34.875 32.125 35.375 32.125 35.75M 10 10M 35.625 34.375C 35.5 34.875 35.5 35.375 35.625 35.75"></path></g></g></g><g id="g-root-tx_processc_htf8rl1pof9c2-fill" data-item-order="0" transform="translate(274.823974609375, 778.533935546875)"><g id="tx_processc_htf8rl1pof9c2-fill-merged" stroke="none" fill="#f4f4f4" fill-opacity="1"><g><text style="font: bold 20px &quot;Shantell Sans&quot;, cursive; white-space: pre;" transform="translate(10, 34)" font-weight="bold" font-size="20px" font-family="'Shantell Sans', cursive"><tspan x="2" y="1.5" dominant-baseline="ideographic">Process </tspan><tspan x="2" y="25.5" dominant-baseline="ideographic">Complete</tspan></text></g></g></g><g id="g-root-tx_processc_htf8rl1pof9c2-stroke" data-item-order="0" transform="translate(274.823974609375, 778.533935546875)"></g><g id="g-root-tx_insights_4mc2011po88ao-fill" data-item-order="0" transform="translate(93.945068359375, 494)"><g id="tx_insights_4mc2011po88ao-fill-merged" stroke="none" fill="#f4f4f4" fill-opacity="1"><g><text style="font: bold 20px &quot;Shantell Sans&quot;, cursive; white-space: pre;" transform="translate(10, 34)" font-weight="bold" font-size="20px" font-family="'Shantell Sans', cursive"><tspan x="2" y="1.5" dominant-baseline="ideographic">Insights &amp; </tspan><tspan x="2" y="25.5" dominant-baseline="ideographic">Review</tspan></text></g></g></g><g id="g-root-tx_insights_4mc2011po88ao-stroke" data-item-order="0" transform="translate(93.945068359375, 494)"></g><g id="g-root-ic_mult_8xs8ip1pofa4r-fill" data-item-order="0" transform="translate(238.823974609375, 787.533935546875)"></g><g id="g-root-ic_mult_8xs8ip1pofa4r-stroke" data-item-order="0" transform="translate(238.823974609375, 787.533935546875)"><g id="ic_mult_8xs8ip1pofa4r-stroke" fill="none" stroke-linecap="round" stroke-linejoin="round" stroke-miterlimit="4" stroke="#f4f4f4" stroke-width="2" stroke-opacity="1"><g><path d="M 16.875 31.25L 14.375 31.25C 13.684644 31.25 13.125 30.690355 13.125 30L 13.125 12.5C 13.125 11.809644 13.684644 11.25 14.375 11.25L 28.125 11.25C 28.815357 11.25 29.375 11.809644 29.375 12.5L 29.375 15M 20.625 35L 18.125 35C 17.434645 35 16.875 34.440353 16.875 33.75L 16.875 16.25C 16.875 15.559644 17.434645 15 18.125 15L 31.875 15C 32.565353 15 33.125 15.559644 33.125 16.25L 33.125 18.75M 21.875 18.75L 35.625 18.75C 35.625 18.75 36.875 18.75 36.875 20L 36.875 37.5C 36.875 37.5 36.875 38.75 35.625 38.75L 21.875 38.75C 21.875 38.75 20.625 38.75 20.625 37.5L 20.625 20C 20.625 20 20.625 18.75 21.875 18.75M 23.125 23.75L 23.5825 24.665001C 23.669333 24.839382 23.834822 24.961285 24.027107 24.992506C 24.219397 25.023729 24.414953 24.960449 24.5525 24.8225L 26.875 22.5M 29.375 23.75L 34.375 23.75M 23.125 30L 23.5825 30.915001C 23.669333 31.089382 23.834822 31.211283 24.027107 31.242506C 24.219397 31.273727 24.414953 31.210449 24.5525 31.0725L 26.875 28.75M 29.375 30L 34.375 30M 29.375 33.75L 31.875 33.75M 16.875 31.25C 16 31.25 15.25 31.375 14.375 31.25C 13.75 31.125 13 30.625 13.125 30C 14 24.25 14.125 18.25 13.125 12.5C 13 11.875 13.75 11.375 14.375 11.25C 18.75 10.125 23.5 11.375 28.125 11.25C 28.875 11.25 29.125 11.875 29.375 12.5C 29.625 13.25 29.25 14.125 29.375 15M 20.625 35C 19.75 34.875 19 35.125 18.125 35C 17.5 34.875 16.875 34.375 16.875 33.75C 16.5 27.875 16.75 22.125 16.875 16.25C 16.875 15.5 17.5 14.875 18.125 15C 22.625 16.125 27.375 14.25 31.875 15C 32.5 15.125 33.25 15.625 33.125 16.25C 33 17.125 33.25 17.875 33.125 18.75M 21.875 18.75C 26.375 19.125 31 18.625 35.625 18.75C 35.625 18.75 36.875 18.75 36.875 20C 36.625 25.875 38.125 31.75 36.875 37.5C 36.875 37.5 36.875 38.875 35.625 38.75C 31 38.5 26.375 37.875 21.875 38.75C 21.875 38.75 20.25 38.625 20.625 37.5C 22.625 32 21.125 25.75 20.625 20C 20.625 20 20.625 19 21.875 18.75M 23.125 23.75C 23.125 24.125 23.5 24.375 23.625 24.625C 23.625 24.875 23.875 25 24 25C 24.25 25 24.5 25 24.5 24.875C 25.25 24 25.875 23 26.875 22.5M 29.375 23.75C 31 23.25 32.75 23.5 34.375 23.75M 23.125 30C 23.375 30.25 23.375 30.625 23.625 30.875C 23.75 31 23.875 31.25 24 31.25C 24.25 31.25 24.375 31.125 24.5 31.125C 25.5 30.5 26 29.25 26.875 28.75M 29.375 30C 31 30.25 32.75 30.625 34.375 30M 29.375 33.75C 30.25 33.75 31 33.75 31.875 33.75"></path></g></g></g><g id="g-root-tx_humanrev_mbqn8h1pob2f7-fill" data-item-order="0" transform="translate(111.886474609375, 778.533935546875)"><g id="tx_humanrev_mbqn8h1pob2f7-fill-merged" stroke="none" fill="#f4f4f4" fill-opacity="1"><g><text style="font: bold 20px &quot;Shantell Sans&quot;, cursive; white-space: pre;" transform="translate(10, 34)" font-weight="bold" font-size="20px" font-family="'Shantell Sans', cursive"><tspan x="2" y="1.5" dominant-baseline="ideographic">Human </tspan><tspan x="2" y="25.5" dominant-baseline="ideographic">Review</tspan></text></g></g></g><g id="g-root-tx_humanrev_mbqn8h1pob2f7-stroke" data-item-order="0" transform="translate(111.886474609375, 778.533935546875)"></g><g id="g-root-tx_lowconfi_1urt3q91po88wb-fill" data-item-order="0" transform="translate(71.941162109375, 636.2669677734375)"><g id="tx_lowconfi_1urt3q91po88wb-fill-merged" stroke="none" fill="#f4f4f4" fill-opacity="1"><g><text style="font: bold 20px &quot;Shantell Sans&quot;, cursive; white-space: pre;" transform="translate(73.4140625, 34)" font-weight="bold" font-size="20px" font-family="'Shantell Sans', cursive"><tspan x="-20.95" y="1.5" dominant-baseline="ideographic">Low </tspan><tspan x="-61.41" y="25.5" dominant-baseline="ideographic">Confidence?</tspan></text></g></g></g><g id="g-root-tx_lowconfi_1urt3q91po88wb-stroke" data-item-order="0" transform="translate(71.941162109375, 636.2669677734375)"></g><g id="g-root-tx_extracti_zkp99d1pogp3f-fill" data-item-order="0" transform="translate(22.5682373046875, 38)"><g id="tx_extracti_zkp99d1pogp3f-fill-merged" stroke="none" fill="#f4f4f4" fill-opacity="1"><g><text style="font: bold 25px &quot;Shantell Sans&quot;, cursive; white-space: pre;" transform="translate(203.42578125, 25)" font-weight="bold" font-size="25px" font-family="'Shantell Sans', cursive"><tspan x="-191.43" y="16.5" dominant-baseline="ideographic">Extraction Engines Workflow</tspan></text></g></g></g><g id="g-root-tx_extracti_zkp99d1pogp3f-stroke" data-item-order="0" transform="translate(22.5682373046875, 38)"></g><g id="g-root-tx_no_1lr6ash1pogp39-fill" data-item-order="0" transform="translate(256.71044921875, 672.2669677734375)"><g id="tx_no_1lr6ash1pogp39-fill-merged" stroke="none" fill="#f4f4f4" fill-opacity="1"><g><text style="font: 15px &quot;Shantell Sans&quot;, cursive; white-space: pre;" transform="translate(10, 10)" font-size="15px" font-family="'Shantell Sans', cursive"><tspan x="2" y="19" dominant-baseline="ideographic">No</tspan></text></g></g></g><g id="g-root-tx_no_1lr6ash1pogp39-stroke" data-item-order="0" transform="translate(256.71044921875, 672.2669677734375)"></g><g id="g-root-ic_desk_1urt3q91po88w9-fill" data-item-order="0" transform="translate(57.945068359375, 503)"></g><g id="g-root-ic_desk_1urt3q91po88w9-stroke" data-item-order="0" transform="translate(57.945068359375, 503)"><g id="ic_desk_1urt3q91po88w9-stroke" fill="none" stroke-linecap="round" stroke-linejoin="round" stroke-miterlimit="4" stroke="#f4f4f4" stroke-width="2" stroke-opacity="1"><g><path d="M 14.375 20.625C 14.375 23.041246 16.333755 25 18.75 25C 21.166246 25 23.125 23.041246 23.125 20.625C 23.125 18.208755 21.166246 16.25 18.75 16.25C 16.333755 16.25 14.375 18.208755 14.375 20.625M 18.75 16.25L 18.75 20.625L 23.125 20.625M 21.25 38.125C 22.382277 36.695297 23.038008 34.946686 23.125 33.125M 28.75 38.125C 27.617723 36.695297 26.961992 34.946686 26.875 33.125M 19.373751 38.125L 30.623751 38.125M 10.625 29.375L 39.375 29.375M 11.875 11.875L 38.125 11.875C 38.125 11.875 39.375 11.875 39.375 13.125L 39.375 31.875C 39.375 31.875 39.375 33.125 38.125 33.125L 11.875 33.125C 11.875 33.125 10.625 33.125 10.625 31.875L 10.625 13.125C 10.625 13.125 10.625 11.875 11.875 11.875M 26.875 18.75L 28.75 16.25L 32.5 19.375L 35.625 15.625M 34.375 25.625L 34.375 23.75M 31.875 25.625L 31.875 23.125M 29.375 25.625L 29.375 21.875M 26.875 25.625L 26.875 23.75M 14.375 20.625C 15 23 16.5 25.75 18.75 25C 21 24.125 23 23 23.125 20.625C 23.25 18.25 21.125 16.625 18.75 16.25C 16.375 15.875 14.25 18.25 14.375 20.625M 18.75 16.25C 18.75 17.75 18.625 19.125 18.75 20.625C 20.25 20.625 21.625 20.625 23.125 20.625M 21.25 38.125C 22.5 36.75 23 35 23.125 33.125M 28.75 38.125C 27.75 36.625 27.375 34.875 26.875 33.125M 19.375 38.125C 23 37.25 26.875 38.75 30.625 38.125M 10.625 29.375C 20.125 30.375 29.75 29.5 39.375 29.375M 11.875 11.875C 20.5 10.5 29.375 12.5 38.125 11.875C 38.125 11.875 39.625 11.875 39.375 13.125C 37.875 19.25 40 25.625 39.375 31.875C 39.375 31.875 39.375 33.375 38.125 33.125C 29.5 31.375 20.5 34.75 11.875 33.125C 11.875 33.125 10.375 33.125 10.625 31.875C 11.875 25.75 10.75 19.375 10.625 13.125C 10.625 13.125 10.625 11.875 11.875 11.875M 26.875 18.75C 27.75 18.125 28.375 17.25 28.75 16.25C 30.25 16.75 31 18.75 32.5 19.375C 33.125 17.875 34.5 16.75 35.625 15.625M 34.375 25.625C 34.625 25 34.375 24.375 34.375 23.75M 31.875 25.625C 31.75 24.75 31.875 24 31.875 23.125M 29.375 25.625C 29.625 24.375 29.25 23.125 29.375 21.875M 26.875 25.625C 26.875 25 26.75 24.375 26.875 23.75"></path></g></g></g><g id="g-root-tx_yes_1cw5rmp1pogmq6-fill" data-item-order="0" transform="translate(147.355224609375, 710.533935546875)"><g id="tx_yes_1cw5rmp1pogmq6-fill-merged" stroke="none" fill="#f4f4f4" fill-opacity="1"><g><text style="font: 15px &quot;Shantell Sans&quot;, cursive; white-space: pre;" transform="translate(10, 10)" font-size="15px" font-family="'Shantell Sans', cursive"><tspan x="2" y="19" dominant-baseline="ideographic">Yes</tspan></text></g></g></g><g id="g-root-tx_yes_1cw5rmp1pogmq6-stroke" data-item-order="0" transform="translate(147.355224609375, 710.533935546875)"></g><g id="g-root-cu_18gc9i91pognii-fill" data-item-order="2" transform="translate(135.355224609375, 298)"></g><g id="g-root-cu_18gc9i91pognii-stroke" data-item-order="2" transform="translate(135.355224609375, 298)"><g id="cu_18gc9i91pognii-stroke" fill="none" stroke-linecap="round" stroke-linejoin="round" stroke-miterlimit="4" stroke="#f4f4f4" stroke-width="4" stroke-opacity="1"><g><path d="M 10 10L 10 38L 10 63.17M 10 10C 11.4 19.2 8.2 28.8 10 38C 11.6 46.2 10.1 54.8 10 63.2"></path><path d="M 0.8 54.7L 10 63.9L 19.2 54.7M 0.8 54.7C 4.3 57.3 6.1 62 10 63.9C 12.3 60.2 16.1 57.7 19.2 54.7" stroke-dasharray="none"></path></g></g></g><g id="g-root-cu_18gc9i91pogoap-fill" data-item-order="2" transform="translate(135.355224609375, 326)"></g><g id="g-root-cu_18gc9i91pogoap-stroke" data-item-order="2" transform="translate(135.355224609375, 326)"><g id="cu_18gc9i91pogoap-stroke" fill="none" stroke-linecap="round" stroke-linejoin="round" stroke-miterlimit="4" stroke="#f4f4f4" stroke-width="4" stroke-opacity="1"><g><path d="M 10 522.5L 10 536.5L 10 550.5L 151.3 550.5L 292.6 550.5L 292.6 280.3L 292.6 10L 151.3 10L 10 10L 10 24L 10 35.17M 10 522.5C 10.2 527.2 9.2 531.9 10 536.5C 10.8 541.1 9.4 545.9 10 550.5C 33.3 550.7 56.5 551.3 79.8 550.5C 103.6 549.6 127.5 549.2 151.3 550.5C 166.1 551.3 180.9 551.7 195.6 550.5C 211.7 549.1 227.9 551.2 244 550.5C 260.2 549.8 276.4 550.1 292.6 550.5C 293.4 534.1 292.5 517.8 292.6 501.4C 292.7 482.7 293.7 464.1 292.6 445.5C 291.5 426.7 291.9 407.9 292.6 389.1C 293.3 369.8 293.5 350.4 292.6 331C 291.8 314.1 292.9 297.2 292.6 280.3C 292.3 266.6 290.9 252.8 292.6 239.2C 294.4 224.6 294 209.6 292.6 194.9C 291.2 180.1 291.1 165 292.6 150.2C 294.1 135.8 292.5 121.2 292.6 106.6C 292.7 90.2 293.1 73.8 292.6 57.4C 292.1 41.6 292.7 25.8 292.6 10C 268.9 10.7 245.2 10.9 221.5 10C 198.1 9.1 174.7 9.1 151.3 10C 126.8 11 102.3 9.1 77.9 10C 55.3 10.8 32.6 10.6 10 10C 9.6 14.7 9.5 19.4 10 24C 10.4 27.7 11.1 31.6 10 35.2"></path><path d="M 0.8 26.7L 10 35.9L 19.2 26.7M 0.8 26.7C 4 29.6 6.5 33.4 10 35.9C 12.4 32.3 16.6 30.1 19.2 26.7" stroke-dasharray="none"></path></g></g></g><g id="g-root-cu_18gc9i91pognil-fill" data-item-order="2" transform="translate(135.355224609375, 426)"></g><g id="g-root-cu_18gc9i91pognil-stroke" data-item-order="2" transform="translate(135.355224609375, 426)"><g id="cu_18gc9i91pognil-stroke" fill="none" stroke-linecap="round" stroke-linejoin="round" stroke-miterlimit="4" stroke="#f4f4f4" stroke-width="4" stroke-opacity="1"><g><path d="M 10 10L 10 38L 10 63.17M 10 10C 11.9 19.1 11.8 28.9 10 38C 8.4 46.2 9 54.8 10 63.2"></path><path d="M 0.8 54.7L 10 63.9L 19.2 54.7M 0.8 54.7C 4.8 56.5 8.2 60 10 63.9C 12.9 60.6 16.5 58.1 19.2 54.7" stroke-dasharray="none"></path></g></g></g><g id="g-root-cu_1cw5rmp1pogni8-fill" data-item-order="2" transform="translate(135.355224609375, 554)"></g><g id="g-root-cu_1cw5rmp1pogni8-stroke" data-item-order="2" transform="translate(135.355224609375, 554)"><g id="cu_1cw5rmp1pogni8-stroke" fill="none" stroke-linecap="round" stroke-linejoin="round" stroke-miterlimit="4" stroke="#f4f4f4" stroke-width="4" stroke-opacity="1"><g><path d="M 10 10L 10 38L 10 63.17M 10 10C 9.2 19.3 10.7 28.7 10 38C 9.4 46.4 8.3 55 10 63.2"></path><path d="M 0.8 54.7L 10 63.9L 19.2 54.7M 0.8 54.7C 3.6 58 7.4 60.4 10 63.9C 13.6 61.5 16.9 58.4 19.2 54.7" stroke-dasharray="none"></path></g></g></g><g id="g-root-cu_1cw5rmp1pogmq7-fill" data-item-order="2" transform="translate(135.355224609375, 170)"></g><g id="g-root-cu_1cw5rmp1pogmq7-stroke" data-item-order="2" transform="translate(135.355224609375, 170)"><g id="cu_1cw5rmp1pogmq7-stroke" fill="none" stroke-linecap="round" stroke-linejoin="round" stroke-miterlimit="4" stroke="#f4f4f4" stroke-width="4" stroke-opacity="1"><g><path d="M 10 10L 10 38L 10 63.17M 10 10C 10.7 19.3 10.6 28.7 10 38C 9.4 46.4 9.8 54.8 10 63.2"></path><path d="M 0.8 54.7L 10 63.9L 19.2 54.7M 0.8 54.7C 4.3 57.3 7.4 60.4 10 63.9C 13.2 61 16.3 57.9 19.2 54.7" stroke-dasharray="none"></path></g></g></g><g id="g-root-cu_140irdt1pogob2-fill" data-item-order="2" transform="translate(256.71044921875, 660.266845703125)"></g><g id="g-root-cu_140irdt1pogob2-stroke" data-item-order="2" transform="translate(256.71044921875, 660.266845703125)"><g id="cu_140irdt1pogob2-stroke" fill="none" stroke-linecap="round" stroke-linejoin="round" stroke-miterlimit="4" stroke="#f4f4f4" stroke-width="4" stroke-opacity="1"><g><path d="M 10 10.000122L 34.8 10.000122L 59.7 10.000122L 59.7 63.100122L 59.7 113.470122M 10 10.000122C 18.3 10.400122 26.6 10.700122 34.8 10.000122C 43.1 9.300122 51.4 10.800122 59.7 10.000122C 57.8 27.600122 59 45.400122 59.7 63.100122C 60.3 79.900122 57.7 96.800122 59.7 113.500122"></path><path d="M 50.5 105.000122L 59.7 114.100122L 68.9 105.000122M 50.5 105.000122C 53.3 108.300122 56.4 111.300122 59.7 114.100122C 62.3 110.600122 66.1 108.300122 68.9 105.000122" stroke-dasharray="none"></path></g></g></g><g id="g-root-cu_140irdt1pogoaz-fill" data-item-order="2" transform="translate(135.355224609375, 710.533935546875)"></g><g id="g-root-cu_140irdt1pogoaz-stroke" data-item-order="2" transform="translate(135.355224609375, 710.533935546875)"><g id="cu_140irdt1pogoaz-stroke" fill="none" stroke-linecap="round" stroke-linejoin="round" stroke-miterlimit="4" stroke="#f4f4f4" stroke-width="4" stroke-opacity="1"><g><path d="M 10 10L 10 38L 10 63.17M 10 10C 9.8 19.3 8.9 28.7 10 38C 11 46.3 8.9 54.9 10 63.2"></path><path d="M 0.8 54.7L 10 63.9L 19.2 54.7M 0.8 54.7C 3.7 57.9 6.5 61.4 10 63.9C 12.1 60.1 17.1 58.5 19.2 54.7" stroke-dasharray="none"></path></g></g></g></g></g></svg>