<?xml version="1.0" encoding="utf-8" standalone="yes"?>
<!DOCTYPE svg PUBLIC "-//W3C//DTD SVG 1.1//EN" "http://www.w3.org/Graphics/SVG/1.1/DTD/svg11.dtd">
<svg style="fill:none;stroke:none;fill-rule:evenodd;clip-rule:evenodd;stroke-linecap:round;stroke-linejoin:round;stroke-miterlimit:1.5;" version="1.1" xmlns="http://www.w3.org/2000/svg" xmlns:xlink="http://www.w3.org/1999/xlink" width="678" height="654" viewBox="0 0 678 654"><style class="text-font-style fontImports" data-font-family="Shantell Sans">@import url(https://fonts.googleapis.com/css2?family=Shantell+Sans:wght@300..800&amp;amp;display=block);</style><g id="items" style="isolation: isolate"><g id="blend" style="mix-blend-mode: normal"><g id="g-root-sy_3_line_vahum91pe06j3-fill" data-item-order="-107838" transform="translate(441.265625, 320)"></g><g id="g-root-sy_3_line_vahum91pe06j3-stroke" data-item-order="-107838" transform="translate(441.265625, 320)"><g id="sy_3_line_vahum91pe06j3-stroke" fill="none" stroke-linecap="round" stroke-linejoin="round" stroke-miterlimit="4" stroke="#f4f4f4" stroke-width="2" stroke-opacity="1"><g><path d="M 10 10L 53 10"></path><path d="M 47 16.5L 53.5 10L 47 3.5" stroke-dasharray="none"></path></g></g></g><g id="g-root-sy_3_line_1_quocht1pe07bc-fill" data-item-order="-107834" transform="translate(448.65625, 344)"></g><g id="g-root-sy_3_line_1_quocht1pe07bc-stroke" data-item-order="-107834" transform="translate(448.65625, 344)"><g id="sy_3_line_1_quocht1pe07bc-stroke" fill="none" stroke-linecap="round" stroke-linejoin="round" stroke-miterlimit="4" stroke="#f4f4f4" stroke-width="2" stroke-opacity="1"><g><path d="M 10 10L 53 10"></path><path d="M 47 16.5L 53.5 10L 47 3.5" stroke-dasharray="none"></path></g></g></g><g id="g-root-sy_3_line_2_quocht1pe07bd-fill" data-item-order="-107830" transform="translate(456.05078125, 368)"></g><g id="g-root-sy_3_line_2_quocht1pe07bd-stroke" data-item-order="-107830" transform="translate(456.05078125, 368)"><g id="sy_3_line_2_quocht1pe07bd-stroke" fill="none" stroke-linecap="round" stroke-linejoin="round" stroke-miterlimit="4" stroke="#f4f4f4" stroke-width="2" stroke-opacity="1"><g><path d="M 10 10L 53 10"></path><path d="M 47 16.5L 53.5 10L 47 3.5" stroke-dasharray="none"></path></g></g></g><g id="g-root-sy_3_line_3_quocht1pe07be-fill" data-item-order="-107826" transform="translate(463.4453125, 392)"></g><g id="g-root-sy_3_line_3_quocht1pe07be-stroke" data-item-order="-107826" transform="translate(463.4453125, 392)"><g id="sy_3_line_3_quocht1pe07be-stroke" fill="none" stroke-linecap="round" stroke-linejoin="round" stroke-miterlimit="4" stroke="#f4f4f4" stroke-width="2" stroke-opacity="1"><g><path d="M 10 10L 53 10"></path><path d="M 47 16.5L 53.5 10L 47 3.5" stroke-dasharray="none"></path></g></g></g><g id="g-root-sy_3_line_4_quocht1pe07bf-fill" data-item-order="-107822" transform="translate(456.0546875, 416)"></g><g id="g-root-sy_3_line_4_quocht1pe07bf-stroke" data-item-order="-107822" transform="translate(456.0546875, 416)"><g id="sy_3_line_4_quocht1pe07bf-stroke" fill="none" stroke-linecap="round" stroke-linejoin="round" stroke-miterlimit="4" stroke="#f4f4f4" stroke-width="2" stroke-opacity="1"><g><path d="M 10 10L 53 10"></path><path d="M 47 16.5L 53.5 10L 47 3.5" stroke-dasharray="none"></path></g></g></g><g id="g-root-sy_3_line_5_meuudd1pe083o-fill" data-item-order="-107818" transform="translate(448.6640625, 440)"></g><g id="g-root-sy_3_line_5_meuudd1pe083o-stroke" data-item-order="-107818" transform="translate(448.6640625, 440)"><g id="sy_3_line_5_meuudd1pe083o-stroke" fill="none" stroke-linecap="round" stroke-linejoin="round" stroke-miterlimit="4" stroke="#f4f4f4" stroke-width="2" stroke-opacity="1"><g><path d="M 10 10L 53 10"></path><path d="M 47 16.5L 53.5 10L 47 3.5" stroke-dasharray="none"></path></g></g></g><g id="g-root-sy_3_line_6_meuudd1pe083p-fill" data-item-order="-107814" transform="translate(441.2734375, 464)"></g><g id="g-root-sy_3_line_6_meuudd1pe083p-stroke" data-item-order="-107814" transform="translate(441.2734375, 464)"><g id="sy_3_line_6_meuudd1pe083p-stroke" fill="none" stroke-linecap="round" stroke-linejoin="round" stroke-miterlimit="4" stroke="#f4f4f4" stroke-width="2" stroke-opacity="1"><g><path d="M 10 10L 53 10"></path><path d="M 47 16.5L 53.5 10L 47 3.5" stroke-dasharray="none"></path></g></g></g><g id="g-root-sy_3_cu-vector_meuudd1pe083q-fill" data-item-order="-107813" transform="translate(367.4453125, 236)"><g id="sy_3_cu-vector_meuudd1pe083q-fill-merged" stroke="none" fill="#60703f" fill-opacity="1"><g><path d="M105.965 166L57.965 322 H45.965L10 205.112L21.965 166L10 126.888L45.965 10 H57.965L105.965 166"></path></g></g></g><g id="g-root-sy_3_cu-vector_meuudd1pe083q-stroke" data-item-order="-107813" transform="translate(367.4453125, 236)"><g id="sy_3_cu-vector_meuudd1pe083q-stroke" fill="none" stroke-linecap="round" stroke-linejoin="round" stroke-miterlimit="4" stroke="#2c2c2c" stroke-width="2" stroke-opacity="1"><g><path d="M 57.9653 322L 45.9653 322L 10.000001 205.1127L 21.9653 166L 10 126.8873L 45.9653 10.000001L 57.9653 10L 105.9653 166L 57.9653 322ZM 45.9653 322L 93.9653 166.0286L 45.9653 10.000001"></path></g></g></g><g id="g-root-sy_2_line_dj7u4h1pe08wf-fill" data-item-order="-107806" transform="translate(349.875, 296)"></g><g id="g-root-sy_2_line_dj7u4h1pe08wf-stroke" data-item-order="-107806" transform="translate(349.875, 296)"><g id="sy_2_line_dj7u4h1pe08wf-stroke" fill="none" stroke-linecap="round" stroke-linejoin="round" stroke-miterlimit="4" stroke="#f4f4f4" stroke-width="2" stroke-opacity="1"><g><path d="M 10 10L 53 10"></path><path d="M 47 16.5L 53.5 10L 47 3.5" stroke-dasharray="none"></path></g></g></g><g id="g-root-sy_2_line_1_hz1c8x1pe08w0-fill" data-item-order="-107802" transform="translate(357.265625, 320)"></g><g id="g-root-sy_2_line_1_hz1c8x1pe08w0-stroke" data-item-order="-107802" transform="translate(357.265625, 320)"><g id="sy_2_line_1_hz1c8x1pe08w0-stroke" fill="none" stroke-linecap="round" stroke-linejoin="round" stroke-miterlimit="4" stroke="#f4f4f4" stroke-width="2" stroke-opacity="1"><g><path d="M 10 10L 53 10"></path><path d="M 47 16.5L 53.5 10L 47 3.5" stroke-dasharray="none"></path></g></g></g><g id="g-root-sy_2_line_2_hz1c8x1pe08w1-fill" data-item-order="-107798" transform="translate(364.66015625, 344)"></g><g id="g-root-sy_2_line_2_hz1c8x1pe08w1-stroke" data-item-order="-107798" transform="translate(364.66015625, 344)"><g id="sy_2_line_2_hz1c8x1pe08w1-stroke" fill="none" stroke-linecap="round" stroke-linejoin="round" stroke-miterlimit="4" stroke="#f4f4f4" stroke-width="2" stroke-opacity="1"><g><path d="M 10 10L 53 10"></path><path d="M 47 16.5L 53.5 10L 47 3.5" stroke-dasharray="none"></path></g></g></g><g id="g-root-sy_2_line_3_hz1c8x1pe08w2-fill" data-item-order="-107794" transform="translate(372.05078125, 368)"></g><g id="g-root-sy_2_line_3_hz1c8x1pe08w2-stroke" data-item-order="-107794" transform="translate(372.05078125, 368)"><g id="sy_2_line_3_hz1c8x1pe08w2-stroke" fill="none" stroke-linecap="round" stroke-linejoin="round" stroke-miterlimit="4" stroke="#f4f4f4" stroke-width="2" stroke-opacity="1"><g><path d="M 10 10L 53 10"></path><path d="M 47 16.5L 53.5 10L 47 3.5" stroke-dasharray="none"></path></g></g></g><g id="g-root-sy_2_line_4_940t351pe06iz-fill" data-item-order="-107790" transform="translate(379.4453125, 392)"></g><g id="g-root-sy_2_line_4_940t351pe06iz-stroke" data-item-order="-107790" transform="translate(379.4453125, 392)"><g id="sy_2_line_4_940t351pe06iz-stroke" fill="none" stroke-linecap="round" stroke-linejoin="round" stroke-miterlimit="4" stroke="#f4f4f4" stroke-width="2" stroke-opacity="1"><g><path d="M 10 10L 53 10"></path><path d="M 47 16.5L 53.5 10L 47 3.5" stroke-dasharray="none"></path></g></g></g><g id="g-root-sy_2_line_5_940t351pe06j0-fill" data-item-order="-107786" transform="translate(372.0546875, 416)"></g><g id="g-root-sy_2_line_5_940t351pe06j0-stroke" data-item-order="-107786" transform="translate(372.0546875, 416)"><g id="sy_2_line_5_940t351pe06j0-stroke" fill="none" stroke-linecap="round" stroke-linejoin="round" stroke-miterlimit="4" stroke="#f4f4f4" stroke-width="2" stroke-opacity="1"><g><path d="M 10 10L 53 10"></path><path d="M 47 16.5L 53.5 10L 47 3.5" stroke-dasharray="none"></path></g></g></g><g id="g-root-sy_2_line_6_940t351pe06j1-fill" data-item-order="-107782" transform="translate(364.6640625, 440)"></g><g id="g-root-sy_2_line_6_940t351pe06j1-stroke" data-item-order="-107782" transform="translate(364.6640625, 440)"><g id="sy_2_line_6_940t351pe06j1-stroke" fill="none" stroke-linecap="round" stroke-linejoin="round" stroke-miterlimit="4" stroke="#f4f4f4" stroke-width="2" stroke-opacity="1"><g><path d="M 10 10L 53 10"></path><path d="M 47 16.5L 53.5 10L 47 3.5" stroke-dasharray="none"></path></g></g></g><g id="g-root-sy_2_line_7_940t351pe06j2-fill" data-item-order="-107778" transform="translate(357.2734375, 464)"></g><g id="g-root-sy_2_line_7_940t351pe06j2-stroke" data-item-order="-107778" transform="translate(357.2734375, 464)"><g id="sy_2_line_7_940t351pe06j2-stroke" fill="none" stroke-linecap="round" stroke-linejoin="round" stroke-miterlimit="4" stroke="#f4f4f4" stroke-width="2" stroke-opacity="1"><g><path d="M 10 10L 53 10"></path><path d="M 47 16.5L 53.5 10L 47 3.5" stroke-dasharray="none"></path></g></g></g><g id="g-root-sy_2_line_8_4o7ayp1pe07bb-fill" data-item-order="-107774" transform="translate(349.8828125, 488)"></g><g id="g-root-sy_2_line_8_4o7ayp1pe07bb-stroke" data-item-order="-107774" transform="translate(349.8828125, 488)"><g id="sy_2_line_8_4o7ayp1pe07bb-stroke" fill="none" stroke-linecap="round" stroke-linejoin="round" stroke-miterlimit="4" stroke="#f4f4f4" stroke-width="2" stroke-opacity="1"><g><path d="M 10 10L 53 10"></path><path d="M 47 16.5L 53.5 10L 47 3.5" stroke-dasharray="none"></path></g></g></g><g id="g-root-sy_2_cu-vector_4o7ayp1pe07bc-fill" data-item-order="-107773" transform="translate(283.4453125, 236)"><g id="sy_2_cu-vector_4o7ayp1pe07bc-fill-merged" stroke="none" fill="#41735b" fill-opacity="1"><g><path d="M105.965 166L57.965 322 H45.965L10 205.112L21.965 166L10 126.888L45.965 10 H57.965L105.965 166"></path></g></g></g><g id="g-root-sy_2_cu-vector_4o7ayp1pe07bc-stroke" data-item-order="-107773" transform="translate(283.4453125, 236)"><g id="sy_2_cu-vector_4o7ayp1pe07bc-stroke" fill="none" stroke-linecap="round" stroke-linejoin="round" stroke-miterlimit="4" stroke="#2c2c2c" stroke-width="2" stroke-opacity="1"><g><path d="M 57.9653 322L 45.9653 322L 10.000001 205.1127L 21.9653 166L 10 126.8873L 45.9653 10.000001L 57.9653 10L 105.9653 166L 57.9653 322ZM 45.9653 322L 93.9653 166.0286L 45.9653 10.000001"></path></g></g></g><g id="g-root-sy_1_cu-vector_4o7ayp1pe07bd-fill" data-item-order="-107769" transform="translate(187.44512939453125, 236.0001220703125)"><g id="sy_1_cu-vector_4o7ayp1pe07bd-fill-merged" stroke="none" fill="#346778" fill-opacity="1"><g><path d="M118 166L70 322 H58L10 166L58 10 H70L118 166"></path></g></g></g><g id="g-root-sy_1_cu-vector_4o7ayp1pe07bd-stroke" data-item-order="-107769" transform="translate(187.44512939453125, 236.0001220703125)"><g id="sy_1_cu-vector_4o7ayp1pe07bd-stroke" fill="none" stroke-linecap="round" stroke-linejoin="round" stroke-miterlimit="4" stroke="#2c2c2c" stroke-width="2" stroke-opacity="1"><g><path d="M 70 322L 58 322L 10 166L 58 10.000001L 70 10L 118 166L 70 322ZM 58 322L 106 166L 58 10.000001"></path></g></g></g><g id="g-root-sy_1_line_8dsu91pe083m-fill" data-item-order="-107764" transform="translate(265.92169189453125, 296.0001220703125)"></g><g id="g-root-sy_1_line_8dsu91pe083m-stroke" data-item-order="-107764" transform="translate(265.92169189453125, 296.0001220703125)"><g id="sy_1_line_8dsu91pe083m-stroke" fill="none" stroke-linecap="round" stroke-linejoin="round" stroke-miterlimit="4" stroke="#f4f4f4" stroke-width="2" stroke-opacity="1"><g><path d="M 10 10L 53 10"></path><path d="M 47 16.5L 53.5 10L 47 3.5" stroke-dasharray="none"></path></g></g></g><g id="g-root-sy_1_line_1_8dsu91pe083n-fill" data-item-order="-107760" transform="translate(258.54278564453125, 272.0001220703125)"></g><g id="g-root-sy_1_line_1_8dsu91pe083n-stroke" data-item-order="-107760" transform="translate(258.54278564453125, 272.0001220703125)"><g id="sy_1_line_1_8dsu91pe083n-stroke" fill="none" stroke-linecap="round" stroke-linejoin="round" stroke-miterlimit="4" stroke="#f4f4f4" stroke-width="2" stroke-opacity="1"><g><path d="M 10 10L 53 10"></path><path d="M 47 16.5L 53.5 10L 47 3.5" stroke-dasharray="none"></path></g></g></g><g id="g-root-sy_1_line_2_8dsu91pe083o-fill" data-item-order="-107756" transform="translate(273.30450439453125, 320.0001220703125)"></g><g id="g-root-sy_1_line_2_8dsu91pe083o-stroke" data-item-order="-107756" transform="translate(273.30450439453125, 320.0001220703125)"><g id="sy_1_line_2_8dsu91pe083o-stroke" fill="none" stroke-linecap="round" stroke-linejoin="round" stroke-miterlimit="4" stroke="#f4f4f4" stroke-width="2" stroke-opacity="1"><g><path d="M 10 10L 53 10"></path><path d="M 47 16.5L 53.5 10L 47 3.5" stroke-dasharray="none"></path></g></g></g><g id="g-root-sy_1_line_3_1qduukh1pe08p9-fill" data-item-order="-107752" transform="translate(280.68341064453125, 344.0001220703125)"></g><g id="g-root-sy_1_line_3_1qduukh1pe08p9-stroke" data-item-order="-107752" transform="translate(280.68341064453125, 344.0001220703125)"><g id="sy_1_line_3_1qduukh1pe08p9-stroke" fill="none" stroke-linecap="round" stroke-linejoin="round" stroke-miterlimit="4" stroke="#f4f4f4" stroke-width="2" stroke-opacity="1"><g><path d="M 10 10L 53 10"></path><path d="M 47 16.5L 53.5 10L 47 3.5" stroke-dasharray="none"></path></g></g></g><g id="g-root-sy_1_line_4_1qduukh1pe08pa-fill" data-item-order="-107748" transform="translate(288.06231689453125, 368.0001220703125)"></g><g id="g-root-sy_1_line_4_1qduukh1pe08pa-stroke" data-item-order="-107748" transform="translate(288.06231689453125, 368.0001220703125)"><g id="sy_1_line_4_1qduukh1pe08pa-stroke" fill="none" stroke-linecap="round" stroke-linejoin="round" stroke-miterlimit="4" stroke="#f4f4f4" stroke-width="2" stroke-opacity="1"><g><path d="M 10 10L 53 10"></path><path d="M 47 16.5L 53.5 10L 47 3.5" stroke-dasharray="none"></path></g></g></g><g id="g-root-sy_1_line_5_1qduukh1pe08pb-fill" data-item-order="-107744" transform="translate(295.44512939453125, 392.0001220703125)"></g><g id="g-root-sy_1_line_5_1qduukh1pe08pb-stroke" data-item-order="-107744" transform="translate(295.44512939453125, 392.0001220703125)"><g id="sy_1_line_5_1qduukh1pe08pb-stroke" fill="none" stroke-linecap="round" stroke-linejoin="round" stroke-miterlimit="4" stroke="#f4f4f4" stroke-width="2" stroke-opacity="1"><g><path d="M 10 10L 53 10"></path><path d="M 47 16.5L 53.5 10L 47 3.5" stroke-dasharray="none"></path></g></g></g><g id="g-root-sy_1_line_6_1utocox1pe08ow-fill" data-item-order="-107740" transform="translate(288.05841064453125, 416.0001220703125)"></g><g id="g-root-sy_1_line_6_1utocox1pe08ow-stroke" data-item-order="-107740" transform="translate(288.05841064453125, 416.0001220703125)"><g id="sy_1_line_6_1utocox1pe08ow-stroke" fill="none" stroke-linecap="round" stroke-linejoin="round" stroke-miterlimit="4" stroke="#f4f4f4" stroke-width="2" stroke-opacity="1"><g><path d="M 10 10L 53 10"></path><path d="M 47 16.5L 53.5 10L 47 3.5" stroke-dasharray="none"></path></g></g></g><g id="g-root-sy_1_line_7_1lyntj51pe06bt-fill" data-item-order="-107736" transform="translate(280.67169189453125, 440.0001220703125)"></g><g id="g-root-sy_1_line_7_1lyntj51pe06bt-stroke" data-item-order="-107736" transform="translate(280.67169189453125, 440.0001220703125)"><g id="sy_1_line_7_1lyntj51pe06bt-stroke" fill="none" stroke-linecap="round" stroke-linejoin="round" stroke-miterlimit="4" stroke="#f4f4f4" stroke-width="2" stroke-opacity="1"><g><path d="M 10 10L 53 10"></path><path d="M 47 16.5L 53.5 10L 47 3.5" stroke-dasharray="none"></path></g></g></g><g id="g-root-sy_1_line_8_1lyntj51pe06bu-fill" data-item-order="-107732" transform="translate(273.28497314453125, 464.0001220703125)"></g><g id="g-root-sy_1_line_8_1lyntj51pe06bu-stroke" data-item-order="-107732" transform="translate(273.28497314453125, 464.0001220703125)"><g id="sy_1_line_8_1lyntj51pe06bu-stroke" fill="none" stroke-linecap="round" stroke-linejoin="round" stroke-miterlimit="4" stroke="#f4f4f4" stroke-width="2" stroke-opacity="1"><g><path d="M 10 10L 53 10"></path><path d="M 47 16.5L 53.5 10L 47 3.5" stroke-dasharray="none"></path></g></g></g><g id="g-root-sy_1_line_9_1lyntj51pe06bv-fill" data-item-order="-107728" transform="translate(265.89825439453125, 488.0001220703125)"></g><g id="g-root-sy_1_line_9_1lyntj51pe06bv-stroke" data-item-order="-107728" transform="translate(265.89825439453125, 488.0001220703125)"><g id="sy_1_line_9_1lyntj51pe06bv-stroke" fill="none" stroke-linecap="round" stroke-linejoin="round" stroke-miterlimit="4" stroke="#f4f4f4" stroke-width="2" stroke-opacity="1"><g><path d="M 10 10L 53 10"></path><path d="M 47 16.5L 53.5 10L 47 3.5" stroke-dasharray="none"></path></g></g></g><g id="g-root-sy_1_line_10_1hiubep1pe0744-fill" data-item-order="-107724" transform="translate(258.51544189453125, 512.0001220703125)"></g><g id="g-root-sy_1_line_10_1hiubep1pe0744-stroke" data-item-order="-107724" transform="translate(258.51544189453125, 512.0001220703125)"><g id="sy_1_line_10_1hiubep1pe0744-stroke" fill="none" stroke-linecap="round" stroke-linejoin="round" stroke-miterlimit="4" stroke="#f4f4f4" stroke-width="2" stroke-opacity="1"><g><path d="M 10 10L 53 10"></path><path d="M 47 16.5L 53.5 10L 47 3.5" stroke-dasharray="none"></path></g></g></g><g id="g-root-sy_0_line_1hiubep1pe0745-fill" data-item-order="-107718" transform="translate(163.4453125, 296)"></g><g id="g-root-sy_0_line_1hiubep1pe0745-stroke" data-item-order="-107718" transform="translate(163.4453125, 296)"><g id="sy_0_line_1hiubep1pe0745-stroke" fill="none" stroke-linecap="round" stroke-linejoin="round" stroke-miterlimit="4" stroke="#f4f4f4" stroke-width="2" stroke-opacity="1"><g><path d="M 10 10L 71.4 10"></path><path d="M 65.4 16.5L 71.9 10L 65.4 3.5" stroke-dasharray="none"></path></g></g></g><g id="g-root-sy_0_line_1_1hiubep1pe0746-fill" data-item-order="-107714" transform="translate(175.44512939453125, 272)"></g><g id="g-root-sy_0_line_1_1hiubep1pe0746-stroke" data-item-order="-107714" transform="translate(175.44512939453125, 272)"><g id="sy_0_line_1_1hiubep1pe0746-stroke" fill="none" stroke-linecap="round" stroke-linejoin="round" stroke-miterlimit="4" stroke="#f4f4f4" stroke-width="2" stroke-opacity="1"><g><path d="M 10 10L 52.11 10"></path><path d="M 46.1 16.5L 52.6 10L 46.1 3.5" stroke-dasharray="none"></path></g></g></g><g id="g-root-sy_0_line_2_1hiubep1pe0747-fill" data-item-order="-107710" transform="translate(163.44534301757812, 248)"></g><g id="g-root-sy_0_line_2_1hiubep1pe0747-stroke" data-item-order="-107710" transform="translate(163.44534301757812, 248)"><g id="sy_0_line_2_1hiubep1pe0747-stroke" fill="none" stroke-linecap="round" stroke-linejoin="round" stroke-miterlimit="4" stroke="#f4f4f4" stroke-width="2" stroke-opacity="1"><g><path d="M 10 10L 56.7 10"></path><path d="M 50.7 16.5L 57.2 10L 50.7 3.5" stroke-dasharray="none"></path></g></g></g><g id="g-root-sy_0_line_3_1d30ta91pe07wg-fill" data-item-order="-107706" transform="translate(175.4453125, 320)"></g><g id="g-root-sy_0_line_3_1d30ta91pe07wg-stroke" data-item-order="-107706" transform="translate(175.4453125, 320)"><g id="sy_0_line_3_1d30ta91pe07wg-stroke" fill="none" stroke-linecap="round" stroke-linejoin="round" stroke-miterlimit="4" stroke="#f4f4f4" stroke-width="2" stroke-opacity="1"><g><path d="M 10 10L 66.79 10"></path><path d="M 60.8 16.5L 67.3 10L 60.8 3.5" stroke-dasharray="none"></path></g></g></g><g id="g-root-sy_0_line_4_1d30ta91pe07wh-fill" data-item-order="-107702" transform="translate(163.44537353515625, 344)"></g><g id="g-root-sy_0_line_4_1d30ta91pe07wh-stroke" data-item-order="-107702" transform="translate(163.44537353515625, 344)"><g id="sy_0_line_4_1d30ta91pe07wh-stroke" fill="none" stroke-linecap="round" stroke-linejoin="round" stroke-miterlimit="4" stroke="#f4f4f4" stroke-width="2" stroke-opacity="1"><g><path d="M 10 10L 86.21 10"></path><path d="M 80.2 16.5L 86.7 10L 80.2 3.5" stroke-dasharray="none"></path></g></g></g><g id="g-root-sy_0_line_5_1d30ta91pe07wi-fill" data-item-order="-107698" transform="translate(175.4451904296875, 368)"></g><g id="g-root-sy_0_line_5_1d30ta91pe07wi-stroke" data-item-order="-107698" transform="translate(175.4451904296875, 368)"><g id="sy_0_line_5_1d30ta91pe07wi-stroke" fill="none" stroke-linecap="round" stroke-linejoin="round" stroke-miterlimit="4" stroke="#f4f4f4" stroke-width="2" stroke-opacity="1"><g><path d="M 10 10L 81.61 10"></path><path d="M 75.6 16.5L 82.1 10L 75.6 3.5" stroke-dasharray="none"></path></g></g></g><g id="g-root-sy_0_line_6_147dt1d1pe08p7-fill" data-item-order="-107694" transform="translate(163.4453125, 392)"></g><g id="g-root-sy_0_line_6_147dt1d1pe08p7-stroke" data-item-order="-107694" transform="translate(163.4453125, 392)"><g id="sy_0_line_6_147dt1d1pe08p7-stroke" fill="none" stroke-linecap="round" stroke-linejoin="round" stroke-miterlimit="4" stroke="#f4f4f4" stroke-width="2" stroke-opacity="1"><g><path d="M 10 10L 101 10"></path><path d="M 95 16.5L 101.5 10L 95 3.5" stroke-dasharray="none"></path></g></g></g><g id="g-root-sy_0_line_7_147dt1d1pe08p8-fill" data-item-order="-107690" transform="translate(175.4451904296875, 416)"></g><g id="g-root-sy_0_line_7_147dt1d1pe08p8-stroke" data-item-order="-107690" transform="translate(175.4451904296875, 416)"><g id="sy_0_line_7_147dt1d1pe08p8-stroke" fill="none" stroke-linecap="round" stroke-linejoin="round" stroke-miterlimit="4" stroke="#f4f4f4" stroke-width="2" stroke-opacity="1"><g><path d="M 10 10L 81.61 10"></path><path d="M 75.6 16.5L 82.1 10L 75.6 3.5" stroke-dasharray="none"></path></g></g></g><g id="g-root-sy_0_line_8_147dt1d1pe08p9-fill" data-item-order="-107686" transform="translate(163.44537353515625, 440)"></g><g id="g-root-sy_0_line_8_147dt1d1pe08p9-stroke" data-item-order="-107686" transform="translate(163.44537353515625, 440)"><g id="sy_0_line_8_147dt1d1pe08p9-stroke" fill="none" stroke-linecap="round" stroke-linejoin="round" stroke-miterlimit="4" stroke="#f4f4f4" stroke-width="2" stroke-opacity="1"><g><path d="M 10 10L 86.21 10"></path><path d="M 80.2 16.5L 86.7 10L 80.2 3.5" stroke-dasharray="none"></path></g></g></g><g id="g-root-sy_0_line_9_147dt1d1pe08pa-fill" data-item-order="-107682" transform="translate(175.4453125, 464)"></g><g id="g-root-sy_0_line_9_147dt1d1pe08pa-stroke" data-item-order="-107682" transform="translate(175.4453125, 464)"><g id="sy_0_line_9_147dt1d1pe08pa-stroke" fill="none" stroke-linecap="round" stroke-linejoin="round" stroke-miterlimit="4" stroke="#f4f4f4" stroke-width="2" stroke-opacity="1"><g><path d="M 10 10L 66.79 10"></path><path d="M 60.8 16.5L 67.3 10L 60.8 3.5" stroke-dasharray="none"></path></g></g></g><g id="g-root-sy_0_line_10_zs6s011pe06br-fill" data-item-order="-107678" transform="translate(163.4453125, 488)"></g><g id="g-root-sy_0_line_10_zs6s011pe06br-stroke" data-item-order="-107678" transform="translate(163.4453125, 488)"><g id="sy_0_line_10_zs6s011pe06br-stroke" fill="none" stroke-linecap="round" stroke-linejoin="round" stroke-miterlimit="4" stroke="#f4f4f4" stroke-width="2" stroke-opacity="1"><g><path d="M 10 10L 71.4 10"></path><path d="M 65.4 16.5L 71.9 10L 65.4 3.5" stroke-dasharray="none"></path></g></g></g><g id="g-root-sy_0_line_11_zs6s011pe06bs-fill" data-item-order="-107674" transform="translate(175.44512939453125, 512)"></g><g id="g-root-sy_0_line_11_zs6s011pe06bs-stroke" data-item-order="-107674" transform="translate(175.44512939453125, 512)"><g id="sy_0_line_11_zs6s011pe06bs-stroke" fill="none" stroke-linecap="round" stroke-linejoin="round" stroke-miterlimit="4" stroke="#f4f4f4" stroke-width="2" stroke-opacity="1"><g><path d="M 10 10L 52.11 10"></path><path d="M 46.1 16.5L 52.6 10L 46.1 3.5" stroke-dasharray="none"></path></g></g></g><g id="g-root-sy_0_line_12_zs6s011pe06bt-fill" data-item-order="-107670" transform="translate(162.76953125, 536)"></g><g id="g-root-sy_0_line_12_zs6s011pe06bt-stroke" data-item-order="-107670" transform="translate(162.76953125, 536)"><g id="sy_0_line_12_zs6s011pe06bt-stroke" fill="none" stroke-linecap="round" stroke-linejoin="round" stroke-miterlimit="4" stroke="#f4f4f4" stroke-width="2" stroke-opacity="1"><g><path d="M 10 10L 57.34 10"></path><path d="M 51.3 16.5L 57.8 10L 51.3 3.5" stroke-dasharray="none"></path></g></g></g><g id="g-root-tx_enhanced_1haq5a91pe1kpb-fill" data-item-order="0" transform="translate(523.4453125, 356)"><g id="tx_enhanced_1haq5a91pe1kpb-fill-merged" stroke="none" fill="#f4f4f4" fill-opacity="1"><g><text style="font: 20px &quot;Shantell Sans&quot;, cursive; white-space: pre;" transform="translate(10, 46)" font-size="20px" font-family="'Shantell Sans', cursive"><tspan x="2" y="-10.5" dominant-baseline="ideographic">Enhanced </tspan><tspan x="2" y="13.5" dominant-baseline="ideographic">Business </tspan><tspan x="2" y="37.5" dominant-baseline="ideographic">Intelligence</tspan></text></g></g></g><g id="g-root-tx_enhanced_1haq5a91pe1kpb-stroke" data-item-order="0" transform="translate(523.4453125, 356)"></g><g id="g-root-tx_internal_1q5qog11pe1n2e-fill" data-item-order="0" transform="translate(14, 368)"><g id="tx_internal_1q5qog11pe1n2e-fill-merged" stroke="none" fill="#f4f4f4" fill-opacity="1"><g><text style="font: 20px &quot;Shantell Sans&quot;, cursive; white-space: pre;" transform="translate(147.4453125, 34)" font-size="20px" font-family="'Shantell Sans', cursive"><tspan x="-135.45" y="1.5" dominant-baseline="ideographic">Internal Data </tspan><tspan x="-75.38" y="25.5" dominant-baseline="ideographic">Sources</tspan></text></g></g></g><g id="g-root-tx_internal_1q5qog11pe1n2e-stroke" data-item-order="0" transform="translate(14, 368)"></g><g id="g-root-tx_ragengin_4g34u91pe1lok-fill" data-item-order="0" transform="translate(265.92578125, 572)"><g id="tx_ragengin_4g34u91pe1lok-fill-merged" stroke="none" fill="#f4f4f4" fill-opacity="1"><g><text style="font: 20px &quot;Shantell Sans&quot;, cursive; white-space: pre;" transform="translate(69.51953125, 22)" font-size="20px" font-family="'Shantell Sans', cursive"><tspan x="-57.52" y="13.5" dominant-baseline="ideographic">RAG Engine</tspan></text></g></g></g><g id="g-root-tx_ragengin_4g34u91pe1lok-stroke" data-item-order="0" transform="translate(265.92578125, 572)"></g><g id="g-root-tx_aicopilo_i0wri91pe08oz-fill" data-item-order="0" transform="translate(358.046875, 188)"><g id="tx_aicopilo_i0wri91pe08oz-fill-merged" stroke="none" fill="#f4f4f4" fill-opacity="1"><g><text style="font: 20px &quot;Shantell Sans&quot;, cursive; white-space: pre;" transform="translate(61.3984375, 22)" font-size="20px" font-family="'Shantell Sans', cursive"><tspan x="-49.4" y="13.5" dominant-baseline="ideographic">AI Copilot</tspan></text></g></g></g><g id="g-root-tx_aicopilo_i0wri91pe08oz-stroke" data-item-order="0" transform="translate(358.046875, 188)"></g><g id="g-root-tx_indexing_1ulk6kh1pe1ma5-fill" data-item-order="0" transform="translate(182.7890625, 164)"><g id="tx_indexing_1ulk6kh1pe1ma5-fill-merged" stroke="none" fill="#f4f4f4" fill-opacity="1"><g><text style="font: 20px &quot;Shantell Sans&quot;, cursive; white-space: pre;" transform="translate(68.65625, 34)" font-size="20px" font-family="'Shantell Sans', cursive"><tspan x="-56.13" y="1.5" dominant-baseline="ideographic">Indexing &amp; </tspan><tspan x="-56.66" y="25.5" dominant-baseline="ideographic">Embedding</tspan></text></g></g></g><g id="g-root-tx_indexing_1ulk6kh1pe1ma5-stroke" data-item-order="0" transform="translate(182.7890625, 164)"></g><g id="g-root-tx_knowledg_vcd9vl1pe0742-fill" data-item-order="0" transform="translate(95.16796875, 38)"><g id="tx_knowledg_vcd9vl1pe0742-fill-merged" stroke="none" fill="#f4f4f4" fill-opacity="1"><g><text style="font: bold 25px &quot;Shantell Sans&quot;, cursive; white-space: pre;" transform="translate(252.27734375, 25)" font-weight="bold" font-size="25px" font-family="'Shantell Sans', cursive"><tspan x="-240.28" y="16.5" dominant-baseline="ideographic">Knowledge Wrappers Process Funnel</tspan></text></g></g></g><g id="g-root-tx_knowledg_vcd9vl1pe0742-stroke" data-item-order="0" transform="translate(95.16796875, 38)"></g></g></g></svg>