<?xml version="1.0" encoding="utf-8" standalone="yes"?>
<!DOCTYPE svg PUBLIC "-//W3C//DTD SVG 1.1//EN" "http://www.w3.org/Graphics/SVG/1.1/DTD/svg11.dtd">
<svg style="fill:none;stroke:none;fill-rule:evenodd;clip-rule:evenodd;stroke-linecap:round;stroke-linejoin:round;stroke-miterlimit:1.5;" version="1.1" xmlns="http://www.w3.org/2000/svg" xmlns:xlink="http://www.w3.org/1999/xlink" width="606" height="456" viewBox="0 0 606 456"><style class="text-font-style fontImports" data-font-family="Roboto">@import url(https://fonts.googleapis.com/css2?family=Roboto:wght@400;700&amp;amp;display=block);</style><g id="items" style="isolation: isolate"><g id="blend" style="mix-blend-mode: normal"><g id="g-root-cp_0_g-0_1hapvvd1jus07a-fill" data-item-order="-200869" transform="translate(20, 248)"></g><g id="g-root-cp_0_g-0_1hapvvd1jus07a-stroke" data-item-order="-200869" transform="translate(20, 248)"><g id="cp_0_g-0_1hapvvd1jus07a-stroke" fill="none" stroke-linecap="round" stroke-linejoin="round" stroke-miterlimit="4" stroke="#f4f4f4" stroke-width="2" stroke-opacity="1"><g><path d="M 67 10L 10 10M 127.0307 10L 72.9706 10M 187 10L 133 10M 247 10L 192.9701 10M 307 10L 252.9703 10M 367.0306 10L 312.9701 10M 427.0299 10L 373 10M 487 10L 433 10"></path></g></g></g><g id="g-root-sy_0_Vector_18f2vmh1jus0zz-fill" data-item-order="-200865" transform="translate(503, 248)"></g><g id="g-root-sy_0_Vector_18f2vmh1jus0zz-stroke" data-item-order="-200865" transform="translate(503, 248)"><g id="sy_0_Vector_18f2vmh1jus0zz-stroke" fill="none" stroke-linecap="round" stroke-linejoin="round" stroke-miterlimit="4" stroke="#f4f4f4" stroke-width="2" stroke-opacity="1"><g><path d="M 65 10L 10 10"></path><path d="M 59 16.5L 65.5 10L 59 3.5" stroke-dasharray="none"></path></g></g></g><g id="g-root-cp_1_g-1_1cuwdqx1jus0zk-fill" data-item-order="-200861" transform="translate(77, 245)"></g><g id="g-root-cp_1_g-1_1cuwdqx1jus0zk-stroke" data-item-order="-200861" transform="translate(77, 245)"><g id="cp_1_g-1_1cuwdqx1jus0zk-stroke" fill="none" stroke-linecap="round" stroke-linejoin="round" stroke-miterlimit="4" stroke="#4f91fc" stroke-width="2" stroke-opacity="1"><g><path d="M 16 13C 16 14.6569 14.6569 16 13 16C 11.3432 16 10 14.6569 10 13C 10 11.3431 11.3432 10 13 10C 14.6569 10 16 11.3431 16 13Z"></path></g></g></g><g id="g-root-cp_2_g-2_1cuwdqx1jus0zl-fill" data-item-order="-200857" transform="translate(137, 245)"></g><g id="g-root-cp_2_g-2_1cuwdqx1jus0zl-stroke" data-item-order="-200857" transform="translate(137, 245)"><g id="cp_2_g-2_1cuwdqx1jus0zl-stroke" fill="none" stroke-linecap="round" stroke-linejoin="round" stroke-miterlimit="4" stroke="#1ac3fb" stroke-width="2" stroke-opacity="1"><g><path d="M 16 13C 16 14.6569 14.6568 16 13 16C 11.3431 16 10 14.6569 10 13C 10 11.3431 11.3431 10 13 10C 14.6568 10 16 11.3431 16 13Z"></path></g></g></g><g id="g-root-cp_3_g-3_13zvul51jurymi-fill" data-item-order="-200853" transform="translate(197, 245)"></g><g id="g-root-cp_3_g-3_13zvul51jurymi-stroke" data-item-order="-200853" transform="translate(197, 245)"><g id="cp_3_g-3_13zvul51jurymi-stroke" fill="none" stroke-linecap="round" stroke-linejoin="round" stroke-miterlimit="4" stroke="#43dd93" stroke-width="2" stroke-opacity="1"><g><path d="M 16 13C 16 14.6569 14.6568 16 13 16C 11.3431 16 10 14.6569 10 13C 10 11.3431 11.3431 10 13 10C 14.6568 10 16 11.3431 16 13Z"></path></g></g></g><g id="g-root-cp_6_g-6_13zvul51jurymj-fill" data-item-order="-200849" transform="translate(377, 245)"></g><g id="g-root-cp_6_g-6_13zvul51jurymj-stroke" data-item-order="-200849" transform="translate(377, 245)"><g id="cp_6_g-6_13zvul51jurymj-stroke" fill="none" stroke-linecap="round" stroke-linejoin="round" stroke-miterlimit="4" stroke="#f79438" stroke-width="2" stroke-opacity="1"><g><path d="M 16 13C 16 14.6569 14.6569 16 13 16C 11.3431 16 10 14.6569 10 13C 10 11.3431 11.3431 10 13 10C 14.6569 10 16 11.3431 16 13Z"></path></g></g></g><g id="g-root-cp_5_g-5_13zvul51jurymk-fill" data-item-order="-200845" transform="translate(317, 245)"></g><g id="g-root-cp_5_g-5_13zvul51jurymk-stroke" data-item-order="-200845" transform="translate(317, 245)"><g id="cp_5_g-5_13zvul51jurymk-stroke" fill="none" stroke-linecap="round" stroke-linejoin="round" stroke-miterlimit="4" stroke="#ffe711" stroke-width="2" stroke-opacity="1"><g><path d="M 16 13C 16 14.6569 14.6568 16 13 16C 11.3431 16 10 14.6569 10 13C 10 11.3431 11.3431 10 13 10C 14.6568 10 16 11.3431 16 13Z"></path></g></g></g><g id="g-root-cp_7_g-7_zk2cgp1jurzet-fill" data-item-order="-200841" transform="translate(437, 245)"></g><g id="g-root-cp_7_g-7_zk2cgp1jurzet-stroke" data-item-order="-200841" transform="translate(437, 245)"><g id="cp_7_g-7_zk2cgp1jurzet-stroke" fill="none" stroke-linecap="round" stroke-linejoin="round" stroke-miterlimit="4" stroke="#fb6762" stroke-width="2" stroke-opacity="1"><g><path d="M 16 13C 16 14.6569 14.6569 16 13 16C 11.3432 16 10 14.6569 10 13C 10 11.3431 11.3432 10 13 10C 14.6569 10 16 11.3431 16 13Z"></path></g></g></g><g id="g-root-cp_4_g-4_zk2cgp1jurzeu-fill" data-item-order="-200837" transform="translate(257, 245)"></g><g id="g-root-cp_4_g-4_zk2cgp1jurzeu-stroke" data-item-order="-200837" transform="translate(257, 245)"><g id="cp_4_g-4_zk2cgp1jurzeu-stroke" fill="none" stroke-linecap="round" stroke-linejoin="round" stroke-miterlimit="4" stroke="#a6da37" stroke-width="2" stroke-opacity="1"><g><path d="M 16 13C 16 14.6569 14.6568 16 13 16C 11.3431 16 10 14.6569 10 13C 10 11.3431 11.3431 10 13 10C 14.6568 10 16 11.3431 16 13Z"></path></g></g></g><g id="g-root-cp_8_g-8_zk2cgp1jurzev-fill" data-item-order="-200833" transform="translate(497, 245)"></g><g id="g-root-cp_8_g-8_zk2cgp1jurzev-stroke" data-item-order="-200833" transform="translate(497, 245)"><g id="cp_8_g-8_zk2cgp1jurzev-stroke" fill="none" stroke-linecap="round" stroke-linejoin="round" stroke-miterlimit="4" stroke="#f366bb" stroke-width="2" stroke-opacity="1"><g><path d="M 16 13C 16 14.6569 14.6569 16 13 16C 11.3431 16 10 14.6569 10 13C 10 11.3431 11.3431 10 13 10C 14.6569 10 16 11.3431 16 13Z"></path></g></g></g><g id="g-root-ic_spar_18k2obd1jutekt-fill" data-item-order="0" transform="translate(182, 200)"></g><g id="g-root-ic_spar_18k2obd1jutekt-stroke" data-item-order="0" transform="translate(182, 200)"><g id="ic_spar_18k2obd1jutekt-stroke" fill="none" stroke-linecap="round" stroke-linejoin="round" stroke-miterlimit="4" stroke="#f4f4f4" stroke-width="2" stroke-opacity="1"><g><path d="M 11.62012 37.871201C 14.87056 37.217651 17.487566 34.568947 18.142 31.234301C 18.79645 34.568947 21.412809 37.217651 24.66325 37.871201M 24.66325 37.87495C 21.412809 38.528351 18.795805 41.1772 18.141369 44.5117C 17.486919 41.1772 14.87056 38.528351 11.62012 37.87495M 26.0341 33.19915L 33.149948 33.19915C 35.6353 33.19915 37.649948 31.1845 37.649948 28.69915L 37.649948 26.25415L 42.277748 28.56835C 42.499603 28.6786 42.746048 28.730501 42.993401 28.718948C 43.240902 28.707399 43.48135 28.632851 43.692101 28.502501C 43.902702 28.372 44.07655 28.189899 44.197151 27.9736C 44.317749 27.757151 44.381199 27.51355 44.381351 27.265751L 44.381351 17.423004C 44.381199 17.175251 44.317749 16.93162 44.197151 16.715216C 44.07655 16.498795 43.902702 16.316755 43.692101 16.186316C 43.48135 16.055876 43.240902 15.981355 42.993401 15.96982C 42.746048 15.958284 42.499603 16.010111 42.277748 16.12039L 37.649948 18.434666L 37.649948 15.988285C 37.649948 13.502995 35.6353 11.488282 33.149948 11.488282L 18.088871 11.488282C 15.60358 11.488282 13.58887 13.502995 13.58887 15.988285L 13.58887 28.69915C 13.58887 29.194149 13.668775 29.670399 13.81639 30.1159"></path></g></g></g><g id="g-root-ic_chec_mfh21l1jurzev-fill" data-item-order="0" transform="translate(302, 200)"></g><g id="g-root-ic_chec_mfh21l1jurzev-stroke" data-item-order="0" transform="translate(302, 200)"><g id="ic_chec_mfh21l1jurzev-stroke" fill="none" stroke-linecap="round" stroke-linejoin="round" stroke-miterlimit="4" stroke="#f4f4f4" stroke-width="2" stroke-opacity="1"><g><path d="M 26.5 42.25C 26.5 43.906857 25.156855 45.25 23.5 45.25C 21.843145 45.25 20.5 43.906857 20.5 42.25M 24.25 19.827999C 24.003321 19.776447 23.752008 19.750311 23.5 19.75C 21.428932 19.75 19.75 21.428932 19.75 23.5C 16.116692 25.013878 13.75 28.563917 13.75 32.5L 13.75 39.25C 13.75 40.906857 12.406855 42.25 10.75 42.25L 36.25 42.25C 34.593143 42.25 33.25 40.906857 33.25 39.25L 33.25 32.5C 33.244099 32.10957 33.214546 31.719854 33.161499 31.333M 41.848 16.837L 35.705498 23.372499L 31.318001 19.112499M 27.25 19.751499C 27.250002 24.722063 31.279438 28.751501 36.25 28.751501C 41.220566 28.751501 45.25 24.722063 45.25 19.751501C 45.25 14.780937 41.220566 10.7515 36.25 10.7515C 31.279438 10.7515 27.250002 14.780937 27.250002 19.751501Z"></path></g></g></g><g id="g-root-ic_vide_htet211jurym9-fill" data-item-order="0" transform="translate(422, 200)"></g><g id="g-root-ic_vide_htet211jurym9-stroke" data-item-order="0" transform="translate(422, 200)"><g id="ic_vide_htet211jurym9-stroke" fill="none" stroke-linecap="round" stroke-linejoin="round" stroke-miterlimit="4" stroke="#f4f4f4" stroke-width="2" stroke-opacity="1"><g><path d="M 10 10M 45.25 36.25L 42.25 37.1245L 42.25 36.25C 42.25 35.421574 41.578426 34.75 40.75 34.75L 31.75 34.75C 30.921572 34.75 30.25 35.421574 30.25 36.25L 30.25 43.75C 30.25 44.578426 30.921572 45.25 31.75 45.25L 40.75 45.25C 41.578426 45.25 42.25 44.578426 42.25 43.75L 42.25 42.7495L 45.25 43.75ZM 10.75 30.25C 10.764584 28.857531 11.052534 27.481483 11.5975 26.200001C 12.1975 25 14.692 24.174999 17.827 23.014C 18.6745 22.7005 18.535 20.488001 18.16 20.073999C 16.951414 18.764374 16.359303 17.001141 16.532499 15.2275C 16.423904 14.098195 16.789553 12.974556 17.541958 12.125433C 18.294363 11.276311 19.365833 10.778097 20.5 10.75C 21.634167 10.778097 22.705635 11.276311 23.45804 12.125433C 24.210445 12.974556 24.576096 14.098195 24.467499 15.2275C 24.641136 17.001642 24.048994 18.765514 22.84 20.075499C 22.465 20.4895 22.3255 22.702 23.173 23.015499C 26.307999 24.1765 28.804001 25.006001 29.4025 26.2015C 29.947466 27.482983 30.235416 28.85903 30.25 30.251501ZM 26.368 11.1055C 26.879528 10.869296 27.436571 10.747955 27.999998 10.75C 29.134165 10.778097 30.205635 11.276311 30.95804 12.125433C 31.710445 12.974556 32.076096 14.098195 31.967499 15.2275C 32.141136 17.001642 31.548994 18.765514 30.34 20.075499C 29.965 20.4895 29.8255 22.702 30.673 23.015499C 33.807999 24.1765 36.304001 25.006001 36.9025 26.2015C 37.447468 27.482983 37.735416 28.85903 37.75 30.251501L 33.25 30.251501"></path></g></g></g><g id="g-root-ic_shar_24vq11ju8aob-fill" data-item-order="0" transform="translate(62, 200)"></g><g id="g-root-ic_shar_24vq11ju8aob-stroke" data-item-order="0" transform="translate(62, 200)"><g id="ic_shar_24vq11ju8aob-stroke" fill="none" stroke-linecap="round" stroke-linejoin="round" stroke-miterlimit="4" stroke="#f4f4f4" stroke-width="2" stroke-opacity="1"><g><path d="M 16.75 21.25C 16.75 22.906855 18.093145 24.25 19.75 24.25C 21.406855 24.25 22.75 22.906855 22.75 21.25C 22.75 19.593145 21.406855 18.25 19.75 18.25C 18.093145 18.25 16.75 19.593145 16.75 21.25ZM 30.143499 28.879002L 27.886 25.267C 27.748947 25.047714 27.508595 24.914497 27.25 24.914497C 26.991405 24.914497 26.751053 25.047714 26.614 25.267L 22.657 31.599998L 21.042999 29.017C 20.905947 28.797714 20.665592 28.664497 20.407 28.664497C 20.148407 28.664497 19.908054 28.797714 19.771 29.017L 15.25 36.25L 22.75 36.25M 24.25 45.25L 12.25 45.25C 11.421573 45.25 10.75 44.578426 10.75 43.75L 10.75 12.25C 10.75 11.421573 11.421573 10.75 12.25 10.75L 32.189499 10.75C 32.587292 10.750085 32.968761 10.908176 33.25 11.1895L 38.810501 16.75C 39.091827 17.031239 39.249916 17.412708 39.25 17.810499L 39.25 22.75M 27.25 37.375C 27.25 39.23896 28.76104 40.75 30.625 40.75C 32.48896 40.75 34 39.23896 34 37.375C 34 35.51104 32.48896 34 30.625 34C 28.76104 34 27.25 35.51104 27.25 37.375ZM 38.5 41.875C 38.5 43.73896 40.01104 45.25 41.875 45.25C 43.73896 45.25 45.25 43.73896 45.25 41.875C 45.25 40.01104 43.73896 38.5 41.875 38.5C 40.01104 38.5 38.5 40.01104 38.5 41.875ZM 38.5 30.625C 38.5 32.48896 40.01104 34 41.875 34C 43.73896 34 45.25 32.48896 45.25 30.625C 45.25 28.76104 43.73896 27.25 41.875 27.25C 40.01104 27.25 38.5 28.76104 38.5 30.625ZM 33.512501 35.642498L 38.987503 32.357498M 33.757 38.627499L 38.743 40.622501"></path></g></g></g><g id="g-root-tx_historic_1cuwgwp1ju9pmv-fill" data-item-order="0" transform="translate(453.3125, 374)"><g id="tx_historic_1cuwgwp1ju9pmv-fill-merged" stroke="none" fill="#f4f4f4" fill-opacity="1"><g><text style="font: 10.5px Roboto, sans-serif; white-space: pre;" transform="translate(56.6875, 22)" font-size="10.5px" font-family="Roboto, sans-serif"><tspan x="-39.31" y="0" dominant-baseline="ideographic">Historical data is </tspan><tspan x="-44.69" y="12" dominant-baseline="ideographic">analyzed for trends</tspan></text></g></g></g><g id="g-root-tx_historic_1cuwgwp1ju9pmv-stroke" data-item-order="0" transform="translate(453.3125, 374)"></g><g id="g-root-tx_alertsar_mgq3dl1ju8c1x-fill" data-item-order="0" transform="translate(279.83984375, 122)"><g id="tx_alertsar_mgq3dl1ju8c1x-fill-merged" stroke="none" fill="#f4f4f4" fill-opacity="1"><g><text style="font: 10.5px Roboto, sans-serif; white-space: pre;" transform="translate(50.16015625, 34)" font-size="10.5px" font-family="Roboto, sans-serif"><tspan x="-23.79" y="-12" dominant-baseline="ideographic">Alerts are </tspan><tspan x="-32.61" y="0" dominant-baseline="ideographic">generated for </tspan><tspan x="-38.16" y="12" dominant-baseline="ideographic">potential issues </tspan><tspan x="-35.58" y="24" dominant-baseline="ideographic">and anomalies</tspan></text></g></g></g><g id="g-root-tx_alertsar_mgq3dl1ju8c1x-stroke" data-item-order="0" transform="translate(279.83984375, 122)"></g><g id="g-root-tx_aimodels_zs6lqx1ju8agz-fill" data-item-order="0" transform="translate(154.1875, 122)"><g id="tx_aimodels_zs6lqx1ju8agz-fill-merged" stroke="none" fill="#f4f4f4" fill-opacity="1"><g><text style="font: 10.5px Roboto, sans-serif; white-space: pre;" transform="translate(55.8125, 34)" font-size="10.5px" font-family="Roboto, sans-serif"><tspan x="-43.81" y="-12" dominant-baseline="ideographic">AI models analyze </tspan><tspan x="-39.52" y="0" dominant-baseline="ideographic">video frames for </tspan><tspan x="-28.48" y="12" dominant-baseline="ideographic">objects and </tspan><tspan x="-25.56" y="24" dominant-baseline="ideographic">anomalies</tspan></text></g></g></g><g id="g-root-tx_aimodels_zs6lqx1ju8agz-stroke" data-item-order="0" transform="translate(154.1875, 122)"></g><g id="g-root-tx_visionop_1d30n151ju8c1t-fill" data-item-order="0" transform="translate(32.29296875, 122)"><g id="tx_visionop_1d30n151ju8c1t-fill-merged" stroke="none" fill="#f4f4f4" fill-opacity="1"><g><text style="font: 10.5px Roboto, sans-serif; white-space: pre;" transform="translate(57.70703125, 34)" font-size="10.5px" font-family="Roboto, sans-serif"><tspan x="-24.57" y="-12" dominant-baseline="ideographic">VisionOps </tspan><tspan x="-28.26" y="0" dominant-baseline="ideographic">connects to </tspan><tspan x="-45.71" y="12" dominant-baseline="ideographic">existing IP or CCTV </tspan><tspan x="-21.03" y="24" dominant-baseline="ideographic">cameras</tspan></text></g></g></g><g id="g-root-tx_visionop_1d30n151ju8c1t-stroke" data-item-order="0" transform="translate(32.29296875, 122)"></g><g id="g-root-tx_performc_dl334p1ju8cum-fill" data-item-order="0" transform="translate(396.3046875, 86)"><g id="tx_performc_dl334p1ju8cum-fill-merged" stroke="none" fill="#fb6762" fill-opacity="1"><g><text style="font: bold 12px Roboto, sans-serif; white-space: pre;" transform="translate(53.6953125, 31)" font-weight="bold" font-size="12px" font-family="Roboto, sans-serif"><tspan x="-41.7" y="-7" dominant-baseline="ideographic">Perform Cross-</tspan><tspan x="-31.84" y="7" dominant-baseline="ideographic">Camera Re-</tspan><tspan x="-35.73" y="21" dominant-baseline="ideographic">Identification</tspan></text></g></g></g><g id="g-root-tx_performc_dl334p1ju8cum-stroke" data-item-order="0" transform="translate(396.3046875, 86)"></g><g id="g-root-tx_generate_qwjli11ju8b9o-fill" data-item-order="0" transform="translate(275.671875, 102)"><g id="tx_generate_qwjli11ju8b9o-fill-merged" stroke="none" fill="#ffe711" fill-opacity="1"><g><text style="font: bold 12px Roboto, sans-serif; white-space: pre;" transform="translate(54.328125, 17)" font-weight="bold" font-size="12px" font-family="Roboto, sans-serif"><tspan x="-42.33" y="7" dominant-baseline="ideographic">Generate Alerts</tspan></text></g></g></g><g id="g-root-tx_generate_qwjli11ju8b9o-stroke" data-item-order="0" transform="translate(275.671875, 102)"></g><g id="g-root-tx_performa_zs6lqx1ju8agy-fill" data-item-order="0" transform="translate(166.97265625, 88)"><g id="tx_performa_zs6lqx1ju8agy-fill-merged" stroke="none" fill="#43dd93" fill-opacity="1"><g><text style="font: bold 12px Roboto, sans-serif; white-space: pre;" transform="translate(43.02734375, 24)" font-weight="bold" font-size="12px" font-family="Roboto, sans-serif"><tspan x="-31.03" y="0" dominant-baseline="ideographic">Perform AI </tspan><tspan x="-27.41" y="14" dominant-baseline="ideographic">Detection</tspan></text></g></g></g><g id="g-root-tx_performa_zs6lqx1ju8agy-stroke" data-item-order="0" transform="translate(166.97265625, 88)"></g><g id="g-root-tx_connectc_940mu11ju8bgo-fill" data-item-order="0" transform="translate(32.3359375, 88)"><g id="tx_connectc_940mu11ju8bgo-fill-merged" stroke="none" fill="#4f91fc" fill-opacity="1"><g><text style="font: bold 12px Roboto, sans-serif; white-space: pre;" transform="translate(57.6640625, 24)" font-weight="bold" font-size="12px" font-family="Roboto, sans-serif"><tspan x="-45.66" y="0" dominant-baseline="ideographic">Connect Camera </tspan><tspan x="-23.54" y="14" dominant-baseline="ideographic">Network</tspan></text></g></g></g><g id="g-root-tx_connectc_940mu11ju8bgo-stroke" data-item-order="0" transform="translate(32.3359375, 88)"></g><g id="g-root-ic_vod_mbqaop1ju8bv2-fill" data-item-order="0" transform="translate(122, 260)"></g><g id="g-root-ic_vod_mbqaop1ju8bv2-stroke" data-item-order="0" transform="translate(122, 260)"><g id="ic_vod_mbqaop1ju8bv2-stroke" fill="none" stroke-linecap="round" stroke-linejoin="round" stroke-miterlimit="4" stroke="#f4f4f4" stroke-width="2" stroke-opacity="1"><g><path d="M 28.375 11.42511C 28.375 15.625105 34.375 19.075119 42.775002 19.075119L 44.875 19.075119M 44.875 23.575075C 30.025002 23.575075 18.625 18.475075 18.625 12.325075M 40.375 27.92515C 21.325001 27.92515 11.125 22.825104 11.125 16.675104M 28.375 44.57515C 28.375 43.375149 28.825001 42.32515 29.724998 41.425148M 28.224998 34.525002C 22.374939 36.474998 18.774969 39.474998 18.774969 42.925003M 11.125 39.175148C 11.125 33.02515 21.325001 27.92515 40.375 27.92515L 44.875 27.92515M 35.425003 44.125149C 34.974998 44.27515 34.525002 44.27515 34.224998 44.125149C 33.924999 43.975151 33.625 43.52515 33.625 43.07515L 33.625 34.225151C 33.625 33.77515 33.924999 33.32515 34.224998 33.175148C 34.525002 33.02515 35.125 32.875149 35.425003 33.175148L 44.125 37.52515C 44.574997 37.675148 44.875 38.125149 44.875 38.725151C 44.875 39.175148 44.574997 39.625149 44.125 39.925148L 35.425003 44.125149ZM 10 10M 44.875149 32.125L 42.324997 32.125"></path></g></g></g><g id="g-root-ic_desk_1d30jvd1juteyw-fill" data-item-order="0" transform="translate(242, 260)"></g><g id="g-root-ic_desk_1d30jvd1juteyw-stroke" data-item-order="0" transform="translate(242, 260)"><g id="ic_desk_1d30jvd1juteyw-stroke" fill="none" stroke-linecap="round" stroke-linejoin="round" stroke-miterlimit="4" stroke="#f4f4f4" stroke-width="2" stroke-opacity="1"><g><path d="M 15.25 22.75C 15.25 25.649494 17.600506 28 20.5 28C 23.399494 28 25.75 25.649494 25.75 22.75C 25.75 19.850506 23.399494 17.5 20.5 17.5C 17.600506 17.5 15.25 19.850506 15.25 22.75M 20.5 17.5L 20.5 22.75L 25.75 22.75M 23.5 43.75C 24.858732 42.034355 25.645609 39.93602 25.75 37.75M 32.5 43.75C 31.141268 42.034355 30.354391 39.93602 30.25 37.75M 21.248501 43.75L 34.748501 43.75M 10.75 33.25L 45.25 33.25M 12.25 12.25L 43.75 12.25C 43.75 12.25 45.25 12.25 45.25 13.75L 45.25 36.25C 45.25 36.25 45.25 37.75 43.75 37.75L 12.25 37.75C 12.25 37.75 10.75 37.75 10.75 36.25L 10.75 13.75C 10.75 13.75 10.75 12.25 12.25 12.25M 30.25 20.5L 32.5 17.5L 37 21.25L 40.75 16.75M 39.25 28.75L 39.25 26.5M 36.25 28.75L 36.25 25.75M 33.25 28.75L 33.25 24.25M 30.25 28.75L 30.25 26.5"></path></g></g></g><g id="g-root-ic_trac_ddlaxl1jutcsi-fill" data-item-order="0" transform="translate(362, 260)"></g><g id="g-root-ic_trac_ddlaxl1jutcsi-stroke" data-item-order="0" transform="translate(362, 260)"><g id="ic_trac_ddlaxl1jutcsi-stroke" fill="none" stroke-linecap="round" stroke-linejoin="round" stroke-miterlimit="4" stroke="#f4f4f4" stroke-width="2" stroke-opacity="1"><g><path d="M 28 22.677999L 28 16.883501M 24.934 13.816C 24.933998 15.509305 26.306694 16.882 28 16.882C 29.693306 16.882 31.066 15.509305 31.066 13.816C 31.066 12.122695 29.693306 10.75 28 10.75C 26.306694 10.75 24.933998 12.122695 24.933998 13.816M 22.247499 24.633999L 18.424 22.632999M 12.7015 21.1C 12.7015 22.793304 14.074195 24.165998 15.7675 24.165998C 17.460804 24.165998 18.8335 22.793304 18.8335 21.099998C 18.8335 19.406694 17.460804 18.034 15.7675 18.034C 14.074195 18.034 12.7015 19.406694 12.7015 21.099998M 33.7705 24.625L 37.576 22.632999M 37.1665 21.1C 37.1665 22.793304 38.539192 24.165998 40.232498 24.165998C 41.925804 24.165998 43.2985 22.793304 43.2985 21.099998C 43.2985 19.406694 41.925804 18.034 40.232498 18.034C 38.539192 18.034 37.1665 19.406694 37.1665 21.099998M 28 34.178497L 28 39.116501M 24.934 42.183998C 24.933998 43.877304 26.306694 45.25 28 45.25C 29.693306 45.25 31.066 43.877304 31.066 42.183998C 31.066 40.490692 29.693306 39.117996 28 39.117996C 26.306694 39.117996 24.933998 40.490692 24.933998 42.183998M 21.6415 31.769499L 18.424 33.457001M 12.7015 34.989998C 12.7015 36.683304 14.074195 38.056 15.7675 38.056C 17.460804 38.056 18.8335 36.683304 18.8335 34.989998C 18.8335 33.296696 17.460804 31.924 15.7675 31.924C 14.074195 31.924 12.7015 33.296696 12.7015 34.989998M 34.376499 31.7785L 37.576 33.457001M 37.1665 34.989998C 37.1665 36.683304 38.539192 38.056 40.232498 38.056C 41.925804 38.056 43.2985 36.683304 43.2985 34.989998C 43.2985 33.296696 41.925804 31.924 40.232498 31.924C 38.539192 31.924 37.1665 33.296696 37.1665 34.989998M 36.983501 27.7435C 37.294128 28.147717 37.294128 28.710285 36.983501 29.1145C 35.820999 30.639999 32.6245 34.178497 28.016499 34.178497C 23.408501 34.178497 20.216499 30.6385 19.0495 29.112999C 18.739117 28.709259 18.739117 28.147243 19.049501 27.7435C 20.213501 26.218 23.41 22.677999 28.016499 22.677999C 32.623001 22.677999 35.8195 26.2195 36.983501 27.7435ZM 28.014999 25.723C 29.50617 25.723 30.715 26.931831 30.715 28.423C 30.715 29.914169 29.506168 31.122999 28.014999 31.122999C 26.52383 31.122999 25.315001 29.914169 25.315001 28.423C 25.315001 26.931831 26.52383 25.723 28.014999 25.723"></path></g></g></g><g id="g-root-ic_spli_4l2o491jus0lo-fill" data-item-order="0" transform="translate(482, 260)"></g><g id="g-root-ic_spli_4l2o491jus0lo-stroke" data-item-order="0" transform="translate(482, 260)"><g id="ic_spli_4l2o491jus0lo-stroke" fill="none" stroke-linecap="round" stroke-linejoin="round" stroke-miterlimit="4" stroke="#f4f4f4" stroke-width="2" stroke-opacity="1"><g><path d="M 44.864502 44.875L 11.125 44.875L 11.125 11.125M 44.864502 26.5C 40.51405 27.4345 39.151001 19.749954 35.342049 19.374954C 31.5331 18.999954 26.771801 28 22.962805 28C 19.153826 28 16.297075 19.374954 11.535851 20.499954C 11.400313 20.531981 11.270954 20.573725 11.147362 20.62462M 11.125 41.875C 15.8125 40.9828 22.75 33.25 26.5 34.439651C 30.25 35.629303 34.75 41.577553 37.75 40.9828C 40.75 40.387901 44.5 33.25 44.5 33.25M 44.864502 16C 43.9123 19.75 40.103199 32.5 34.389702 31.75C 28.67635 31 27.723999 13.75 22.962805 13.75C 16.06885 13.75 19.987585 30.094601 11.148391 30.1504"></path></g></g></g><g id="g-root-tx_visionop_m8lu3d1jus0zs-fill" data-item-order="0" transform="translate(74.7578125, 38)"><g id="tx_visionop_m8lu3d1jus0zs-fill-merged" stroke="none" fill="#f4f4f4" fill-opacity="1"><g><text style="font: bold 20px Roboto, sans-serif; white-space: pre;" transform="translate(228.2421875, 22)" font-weight="bold" font-size="20px" font-family="Roboto, sans-serif"><tspan x="-216.24" y="11.5" dominant-baseline="ideographic">VisionOps Industrial Video Intelligence Platform</tspan></text></g></g></g><g id="g-root-tx_visionop_m8lu3d1jus0zs-stroke" data-item-order="0" transform="translate(74.7578125, 38)"></g><g id="g-root-tx_ingestvi_8vwgpl1ju9p1k-fill" data-item-order="0" transform="translate(102.59765625, 326)"><g id="tx_ingestvi_8vwgpl1ju9p1k-fill-merged" stroke="none" fill="#1ac3fb" fill-opacity="1"><g><text style="font: bold 12px Roboto, sans-serif; white-space: pre;" transform="translate(47.40234375, 24)" font-weight="bold" font-size="12px" font-family="Roboto, sans-serif"><tspan x="-35.4" y="0" dominant-baseline="ideographic">Ingest Video </tspan><tspan x="-24.1" y="14" dominant-baseline="ideographic">Streams</tspan></text></g></g></g><g id="g-root-tx_ingestvi_8vwgpl1ju9p1k-stroke" data-item-order="0" transform="translate(102.59765625, 326)"></g><g id="g-root-tx_presenti_4g2yl51ju9ptu-fill" data-item-order="0" transform="translate(212.921875, 326)"><g id="tx_presenti_4g2yl51ju9ptu-fill-merged" stroke="none" fill="#a6da37" fill-opacity="1"><g><text style="font: bold 12px Roboto, sans-serif; white-space: pre;" transform="translate(57.078125, 24)" font-weight="bold" font-size="12px" font-family="Roboto, sans-serif"><tspan x="-45.08" y="0" dominant-baseline="ideographic">Present Insights </tspan><tspan x="-38.22" y="14" dominant-baseline="ideographic">on Dashboard</tspan></text></g></g></g><g id="g-root-tx_presenti_4g2yl51ju9ptu-stroke" data-item-order="0" transform="translate(212.921875, 326)"></g><g id="g-root-tx_conductz_1q5qi6x1ju9r7o-fill" data-item-order="0" transform="translate(334.8125, 326)"><g id="tx_conductz_1q5qi6x1ju9r7o-fill-merged" stroke="none" fill="#f79438" fill-opacity="1"><g><text style="font: bold 12px Roboto, sans-serif; white-space: pre;" transform="translate(55.1875, 24)" font-weight="bold" font-size="12px" font-family="Roboto, sans-serif"><tspan x="-40.01" y="0" dominant-baseline="ideographic">Conduct Zone-</tspan><tspan x="-43.19" y="14" dominant-baseline="ideographic">Based Analytics</tspan></text></g></g></g><g id="g-root-tx_conductz_1q5qi6x1ju9r7o-stroke" data-item-order="0" transform="translate(334.8125, 326)"></g><g id="g-root-tx_recogniz_1cuwgwp1ju9pmu-fill" data-item-order="0" transform="translate(468.4375, 326)"><g id="tx_recogniz_1cuwgwp1ju9pmu-fill-merged" stroke="none" fill="#f366bb" fill-opacity="1"><g><text style="font: bold 12px Roboto, sans-serif; white-space: pre;" transform="translate(41.5625, 31)" font-weight="bold" font-size="12px" font-family="Roboto, sans-serif"><tspan x="-29.56" y="-7" dominant-baseline="ideographic">Recognize </tspan><tspan x="-26.89" y="7" dominant-baseline="ideographic">Temporal </tspan><tspan x="-24.33" y="21" dominant-baseline="ideographic">Patterns</tspan></text></g></g></g><g id="g-root-tx_recogniz_1cuwgwp1ju9pmu-stroke" data-item-order="0" transform="translate(468.4375, 326)"></g><g id="g-root-tx_videostr_4g2yl51ju9ptt-fill" data-item-order="0" transform="translate(94.25, 360)"><g id="tx_videostr_4g2yl51ju9ptt-fill-merged" stroke="none" fill="#f4f4f4" fill-opacity="1"><g><text style="font: 10.5px Roboto, sans-serif; white-space: pre;" transform="translate(55.75, 28)" font-size="10.5px" font-family="Roboto, sans-serif"><tspan x="-43.75" y="-6" dominant-baseline="ideographic">Video streams are </tspan><tspan x="-35.42" y="6" dominant-baseline="ideographic">ingested using </tspan><tspan x="-33.17" y="18" dominant-baseline="ideographic">Kafka or MSK</tspan></text></g></g></g><g id="g-root-tx_videostr_4g2yl51ju9ptt-stroke" data-item-order="0" transform="translate(94.25, 360)"></g><g id="g-root-tx_insights_1ulk0bd1ju9qff-fill" data-item-order="0" transform="translate(213.4375, 360)"><g id="tx_insights_1ulk0bd1ju9qff-fill-merged" stroke="none" fill="#f4f4f4" fill-opacity="1"><g><text style="font: 10.5px Roboto, sans-serif; white-space: pre;" transform="translate(56.5625, 28)" font-size="10.5px" font-family="Roboto, sans-serif"><tspan x="-27.26" y="-6" dominant-baseline="ideographic">Insights are </tspan><tspan x="-37.4" y="6" dominant-baseline="ideographic">visualized on an </tspan><tspan x="-44.56" y="18" dominant-baseline="ideographic">intuitive dashboard</tspan></text></g></g></g><g id="g-root-tx_insights_1ulk0bd1ju9qff-stroke" data-item-order="0" transform="translate(213.4375, 360)"></g><g id="g-root-tx_behavior_1q5qi6x1ju9r7p-fill" data-item-order="0" transform="translate(337.4765625, 360)"><g id="tx_behavior_1q5qi6x1ju9r7p-fill-merged" stroke="none" fill="#f4f4f4" fill-opacity="1"><g><text style="font: 10.5px Roboto, sans-serif; white-space: pre;" transform="translate(52.5234375, 28)" font-size="10.5px" font-family="Roboto, sans-serif"><tspan x="-26.95" y="-6" dominant-baseline="ideographic">Behavior is </tspan><tspan x="-40.52" y="6" dominant-baseline="ideographic">monitored within </tspan><tspan x="-33.86" y="18" dominant-baseline="ideographic">defined zones</tspan></text></g></g></g><g id="g-root-tx_behavior_1q5qi6x1ju9r7p-stroke" data-item-order="0" transform="translate(337.4765625, 360)"></g><g id="g-root-tx_objectsa_dl334p1ju8cun-fill" data-item-order="0" transform="translate(392.1953125, 134)"><g id="tx_objectsa_dl334p1ju8cun-fill-merged" stroke="none" fill="#f4f4f4" fill-opacity="1"><g><text style="font: 10.5px Roboto, sans-serif; white-space: pre;" transform="translate(57.8046875, 28)" font-size="10.5px" font-family="Roboto, sans-serif"><tspan x="-45.8" y="-6" dominant-baseline="ideographic">Objects are tracked </tspan><tspan x="-37.48" y="6" dominant-baseline="ideographic">across different </tspan><tspan x="-32.78" y="18" dominant-baseline="ideographic">camera views</tspan></text></g></g></g><g id="g-root-tx_objectsa_dl334p1ju8cun-stroke" data-item-order="0" transform="translate(392.1953125, 134)"></g></g></g></svg>