<?xml version="1.0" encoding="utf-8" standalone="yes"?>
<!DOCTYPE svg PUBLIC "-//W3C//DTD SVG 1.1//EN" "http://www.w3.org/Graphics/SVG/1.1/DTD/svg11.dtd">
<svg style="fill:none;stroke:none;fill-rule:evenodd;clip-rule:evenodd;stroke-linecap:round;stroke-linejoin:round;stroke-miterlimit:1.5;" version="1.1" xmlns="http://www.w3.org/2000/svg" xmlns:xlink="http://www.w3.org/1999/xlink" width="1020" height="558" viewBox="0 0 1020 558"><style class="text-font-style fontImports" data-font-family="Shantell Sans">@import url(https://fonts.googleapis.com/css2?family=Shantell+Sans:wght@300..800&amp;amp;display=block);</style><g id="items" style="isolation: isolate"><g id="blend" style="mix-blend-mode: normal"><g id="g-root-cp_1_text-1_v7z5td1ng4hkw-fill" data-item-order="-449052" transform="translate(218, 155)"><g id="cp_1_text-1_v7z5td1ng4hkw-fill-merged" stroke="none" fill="#776f30" fill-opacity="1"><g><path d="M10 46C10 65.882 26.118 82 46 82C65.882 82 82 65.882 82 46C82 26.118 65.882 10 46 10C26.118 10 10 26.118 10 46"></path></g></g></g><g id="g-root-cp_1_text-1_v7z5td1ng4hkw-stroke" data-item-order="-449052" transform="translate(218, 155)"><g id="cp_1_text-1_v7z5td1ng4hkw-stroke" fill="none" stroke-linecap="round" stroke-linejoin="round" stroke-miterlimit="4" stroke="#2c2c2c" stroke-width="2" stroke-opacity="1"><g><path d="M 10 46C 10 65.882251 26.117749 82 46 82C 65.882251 82 82 65.882251 82 46C 82 26.117749 65.882251 10 46 10C 26.117749 10 10 26.117749 10 46"></path></g></g></g><g id="g-root-cp_0_g-0_hx54j51ng4g01-fill" data-item-order="-449035" transform="translate(302, 184.5)"></g><g id="g-root-cp_0_g-0_hx54j51ng4g01-stroke" data-item-order="-449035" transform="translate(302, 184.5)"><g id="cp_0_g-0_hx54j51ng4g01-stroke" fill="none" stroke-linecap="round" stroke-linejoin="round" stroke-miterlimit="4" stroke="#f4f4f4" stroke-width="2" stroke-opacity="1"><g><path d="M 10 16.5L 58 16.5C 64.6274 16.5 70 21.8726 70 28.5M 16.4553 10L 10 16.5444L 16.5444 22.9997M 70 28.5L 70 106.5"></path></g></g></g><g id="g-root-cp_3_text-3_hx54j51ng4g02-fill" data-item-order="-449028" transform="translate(218, 299)"><g id="cp_3_text-3_hx54j51ng4g02-fill-merged" stroke="none" fill="#954643" fill-opacity="1"><g><path d="M10 46C10 65.882 26.118 82 46 82C65.882 82 82 65.882 82 46C82 26.118 65.882 10 46 10C26.118 10 10 26.118 10 46"></path></g></g></g><g id="g-root-cp_3_text-3_hx54j51ng4g02-stroke" data-item-order="-449028" transform="translate(218, 299)"><g id="cp_3_text-3_hx54j51ng4g02-stroke" fill="none" stroke-linecap="round" stroke-linejoin="round" stroke-miterlimit="4" stroke="#2c2c2c" stroke-width="2" stroke-opacity="1"><g><path d="M 10 46C 10 65.882251 26.117749 82 46 82C 65.882251 82 82 65.882251 82 46C 82 26.117749 65.882251 10 46 10C 26.117749 10 10 26.117749 10 46"></path></g></g></g><g id="g-root-cp_0_g-0_1_91i4a91ng4gsr-fill" data-item-order="-449013" transform="translate(302, 281)"></g><g id="g-root-cp_0_g-0_1_91i4a91ng4gsr-stroke" data-item-order="-449013" transform="translate(302, 281)"><g id="cp_0_g-0_1_91i4a91ng4gsr-stroke" fill="none" stroke-linecap="round" stroke-linejoin="round" stroke-miterlimit="4" stroke="#f4f4f4" stroke-width="2" stroke-opacity="1"><g><path d="M 10 63.9986L 58.0014 63.9986C 64.628 63.9986 70 58.6267 70 52M 16.4553 57.5L 10 64.0444L 16.5444 70.4997M 70 10L 70.000001 52"></path></g></g></g><g id="g-root-cp_0e_g-0e_4lom5t1ng4hl0-fill" data-item-order="-449003" transform="translate(427.314453125, 140.81640625)"></g><g id="g-root-cp_0e_g-0e_4lom5t1ng4hl0-stroke" data-item-order="-449003" transform="translate(427.314453125, 140.81640625)"></g><g id="g-root-cp_0c_g-0c_1urs4z51ng4f0t-fill" data-item-order="-448999" transform="translate(362, 133.5)"></g><g id="g-root-cp_0c_g-0c_1urs4z51ng4f0t-stroke" data-item-order="-448999" transform="translate(362, 133.5)"><g id="cp_0c_g-0c_1urs4z51ng4f0t-stroke" fill="none" stroke-linecap="round" stroke-linejoin="round" stroke-miterlimit="4" stroke="#f4f4f4" stroke-width="2" stroke-opacity="1"><g><path d="M 99.5738 152.9353C 80.3928 138.4211 68 115.4078 68 89.5C 68 45.5934 103.5934 10 147.5 10C 191.4066 10 227 45.5934 227 89.5C 227 100.4846 224.7722 110.9488 220.7438 120.4656M 10 91L 68 91M 227 91L 286 91"></path></g></g></g><g id="g-root-cp_0d_g-0d_1qbymup1ng4ft2-fill" data-item-order="-448992" transform="translate(442.93896484375, 141.83203125)"><g id="cp_0d_g-0d_1qbymup1ng4ft2-fill-merged" stroke="none" fill="#6b6b6b" fill-opacity="1"><g><path d="M17.293 29.027C11.977 30.523 8.88 36.046 10.377 41.362L26.881 99.997C30.714 103.024 34.748 107.912 35.061 114.17C35.252 118.003 35.297 121.102 35.336 123.775C35.375 126.478 35.407 128.747 35.579 130.902L51.099 186.04C52.595 191.356 58.118 194.452 63.434 192.956L87.176 186.27C84.605 183.996 81.38 180.924 79.267 177.986C70.527 165.831 67.767 153.44 60.991 141.403C59.897 139.46 60.03 136.933 61.874 135.679C63.466 134.597 65.557 133.668 68.061 133.668C74.561 134.168 78.394 138.668 80.061 140.168L62.783 94.426C61.783 91.426 59.493 84.987 66.129 81.857C72.817 78.701 76.198 84.505 77.365 87.172L94.475 132.437C92.508 127.049 90.753 117.221 97.56 114.668C105.56 111.668 110.227 123.501 111.56 127.668C111.244 124.031 110.628 115.592 115.264 113.029L113.561 113.668C113.561 113.668 108.156 114.168 105.56 110.672C100.734 104.172 109.06 93.672 109.06 93.672L115.061 85.672C115.08 85.653 115.041 85.69 115.061 85.672L113.561 80.672L107.65 59.08L95.888 17.293C94.392 11.977 88.869 8.88 83.553 10.377L17.293 29.027 M121.618 108.703C120.634 110.094 119.515 111.191 117.561 112.168L116.997 112.379C119.379 111.782 121.348 112.349 122.973 113.52L121.618 108.703 M94.475 132.437L94.56 132.668C94.532 132.592 94.504 132.515 94.475 132.437"></path></g></g></g><g id="g-root-cp_0d_g-0d_1qbymup1ng4ft2-stroke" data-item-order="-448992" transform="translate(442.93896484375, 141.83203125)"><g id="cp_0d_g-0d_1qbymup1ng4ft2-stroke" fill="none" stroke-linecap="round" stroke-linejoin="round" stroke-miterlimit="4" stroke="#2c2c2c" stroke-width="2" stroke-opacity="1"><g><path d="M 17.293131 29.0267C 11.976931 30.5231 8.880231 36.0458 10.376631 41.3621L 26.880631 99.9972C 30.713531 103.0238 34.747631 107.9117 35.060531 114.1703C 35.252231 118.0033 35.296931 121.1017 35.335531 123.7753C 35.374531 126.4784 35.407331 128.7472 35.579331 130.9018L 51.098931 186.0396C 52.595331 191.3559 58.118031 194.4525 63.434331 192.9561L 87.175531 186.2699C 84.605431 183.9963 81.379631 180.9236 79.267431 177.9861C 70.527231 165.8309 67.767031 153.4402 60.990931 141.4027C 59.897131 139.4596 60.029631 136.9327 61.873631 135.6791C 63.465731 134.5967 65.556731 133.668 68.060531 133.668C 74.560531 134.168 78.393931 138.6681 80.060531 140.168L 62.782731 94.4256C 61.782731 91.4256 59.493031 84.9872 66.128631 81.8569C 72.817331 78.7014 76.198031 84.5048 77.364731 87.1715L 94.475131 132.4372C 92.507931 127.0491 90.752731 117.2207 97.560431 114.6678C 105.560431 111.6678 110.227131 123.5011 111.560431 127.6678C 111.244131 124.0305 110.627831 115.5916 115.263931 113.0293L 113.560531 113.668C 113.560531 113.668 108.156431 114.168 105.560431 110.6717C 100.734331 104.1718 109.060231 93.6717 109.060231 93.6717L 115.060531 85.6717C 115.079531 85.6527 115.040531 85.6905 115.060531 85.6717L 113.560531 80.6717L 107.650131 59.0799L 95.888431 17.2931C 94.392031 11.9769 88.869331 8.8802 83.553031 10.3766L 17.293131 29.0267ZM 121.617531 108.703C 120.634231 110.0939 119.515431 111.1907 117.560531 112.1681L 116.997031 112.3794C 119.379231 111.7819 121.348231 112.3487 122.973431 113.5202L 121.617531 108.703ZM 94.475131 132.4372L 94.560431 132.6678C 94.532031 132.5919 94.503531 132.515 94.475131 132.4372ZM 29.137934 50.614425C 28.832834 49.552925 29.446034 48.444925 30.507634 48.139825L 41.522734 44.973425C 42.584334 44.668325 43.692334 45.281525 43.997434 46.343125L 47.163734 57.358225C 47.468934 58.419825 46.855734 59.527825 45.794134 59.832925L 34.778934 62.999225C 33.717434 63.304425 32.609434 62.691225 32.304234 61.629625L 29.137934 50.614425ZM 49.637634 44.387225C 49.332534 43.325625 49.945734 42.217725 51.007234 41.912525L 62.022434 38.746225C 63.084034 38.441025 64.191934 39.054225 64.497134 40.115825L 67.663434 51.131025C 67.968634 52.192625 67.355434 53.300525 66.293834 53.605725L 55.278634 56.772025C 54.217134 57.077225 53.109134 56.464025 52.803934 55.402425L 49.637634 44.387225ZM 69.637834 38.387325C 69.332634 37.325725 69.945834 36.217825 71.007434 35.912625L 82.022634 32.746325C 83.084134 32.441125 84.192134 33.054325 84.497334 34.115925L 87.663634 45.131125C 87.968734 46.192725 87.355534 47.300625 86.293934 47.605825L 75.278834 50.772125C 74.217234 51.077325 73.109334 50.464125 72.804134 49.402525L 69.637834 38.387325ZM 36.137934 72.614425C 35.832834 71.552925 36.446034 70.444925 37.507634 70.139825L 48.522734 66.973425C 49.584334 66.668325 50.692334 67.281525 50.997434 68.343125L 54.163734 79.358225C 54.468934 80.419825 53.855734 81.527825 52.794134 81.832925L 41.778934 84.999225C 40.717434 85.304425 39.609434 84.691225 39.304234 83.629625L 36.137934 72.614425ZM 56.637634 66.387225C 56.332534 65.325625 56.945734 64.217725 58.007234 63.912525L 69.022434 60.746225C 70.084034 60.441025 71.191934 61.054225 71.497134 62.115825L 74.663434 73.131025C 74.968634 74.192625 74.355434 75.300525 73.293834 75.605725L 62.278634 78.772025C 61.217134 79.077225 60.109134 78.463925 59.803934 77.402425L 56.637634 66.387225ZM 76.637834 60.387325C 76.332634 59.325725 76.945834 58.217825 78.007434 57.912625L 89.022634 54.746325C 90.084134 54.441125 91.192134 55.054325 91.497334 56.115925L 94.663634 67.131125C 94.968734 68.192725 94.355534 69.300625 93.293934 69.605825L 82.278834 72.772125C 81.217234 73.077325 80.109334 72.464125 79.804134 71.402525L 76.637834 60.387325ZM 42.137934 94.614425C 41.832834 93.552925 42.446034 92.444925 43.507634 92.139825L 54.522734 88.973425C 55.584334 88.668325 56.692334 89.281525 56.997434 90.343125L 60.163734 101.358225C 60.468934 102.419825 59.855734 103.527825 58.794134 103.832925L 47.778934 106.999225C 46.717434 107.304425 45.609434 106.691225 45.304234 105.629625L 42.137934 94.614425ZM 82.637834 82.387325C 82.332634 81.325725 82.945834 80.217825 84.007434 79.912625L 95.022634 76.746325C 96.084134 76.441125 97.192134 77.054325 97.497334 78.115925L 100.663634 89.131125C 100.968734 90.192725 100.355534 91.300625 99.293934 91.605825L 88.278834 94.772125C 87.217234 95.077325 86.109334 94.464125 85.804134 93.402525L 82.637834 82.387325ZM 108.821734 94.167925L 89.263534 25.437425C 88.356534 22.250325 85.037634 20.401825 81.850434 21.308725L 23.830034 37.819325C 20.642934 38.726225 18.794434 42.045225 19.701334 45.232425L 57.471834 177.962925C 58.378734 181.150125 61.697734 182.998625 64.884834 182.091625L 79.393734 177.962925"></path></g></g></g><g id="g-root-cp_0a_g-0a_1d0i4hd1ng4hdz-fill" data-item-order="-448986" transform="translate(450, 185.93798828125)"><g id="cp_0a_g-0a_1d0i4hd1ng4hdz-fill-merged" stroke="none" fill="#815d3b" fill-opacity="1"><g><path d="M18.5 152.064L18 168.331L69 169.831L69.5 157.565L71 155.565L80.108 142.161C73.94 144.011 62.5 147.063 55.5 149.063C49 150.92 45.167 144.063 44 140.563L38 120.563C35.5 112.229 31 95.063 29.5 90.563C27.732 85.259 28.5 80.065 28 70.065C27.5 60.065 17.5 53.564 14 52.564C11.2 51.764 10.167 53.898 10 55.064L11.5 95.064C11.667 108.064 12.1 135.464 12.5 141.064C12.9 146.664 16.667 150.731 18.5 152.064 M96.5 170.33C96.5 170.33 96.329 164.088 94.5 160.619C90.236 152.534 80.108 142.161 80.108 142.161C77.23 139.619 74.248 136.675 72 133.563C63.624 121.965 60.718 109.475 53.904 97.286C52.822 95.349 52.956 92.837 54.768 91.556C56.289 90.481 58.243 89.563 60.5 89.563C67 89.563 71.333 94.564 73 96.064L55.5 49.566C54.5 46.566 52.7 40.364 59.5 37.564C66.3 34.764 69.333 40.899 70.5 43.566L87.415 88.332C85.447 82.944 83.692 73.115 90.5 70.562C98.5 67.562 103.166 79.396 104.5 83.562C104.166 79.729 103.5 70.562 109 68.562C115.391 66.238 119 72.062 121 76.562C122.6 80.162 123.666 82.729 124 83.562C122.666 79.229 121 70.762 126.5 68.562C131.5 66.562 136 68.062 138 73.562L148 98.064C150.333 105.396 147.5 118.563 147 124.063C147 124.063 145.289 133.837 146.5 140.563C147.405 145.588 149.5 155.063 149.5 155.063L96.5 170.33 M103 12.564L100.5 15.064L106.5 36.566C107.833 34.733 111.8 30.166 115 26.566C118.2 22.966 118.333 19.399 118 18.066C117.833 16.566 116.6 13.064 113 11.064C109.4 9.064 105.5 10.063 103 12.564 M108 41.566L102 49.566C102 49.566 93.674 60.066 98.5 66.566C101.096 70.063 106.5 69.563 106.5 69.563L110.5 68.063C114.5 66.063 115 63.563 118 59.066C121.019 54.54 122.666 50.9 123 49.566C123.333 48.233 123 44.566 118 41.566C113.985 39.157 109.5 40.066 108 41.566 M73 96.064L81.5 115.563 M87.415 88.332L87.5 88.562C87.471 88.486 87.443 88.41 87.415 88.332"></path></g></g></g><g id="g-root-cp_0a_g-0a_1d0i4hd1ng4hdz-stroke" data-item-order="-448986" transform="translate(450, 185.93798828125)"><g id="cp_0a_g-0a_1d0i4hd1ng4hdz-stroke" fill="none" stroke-linecap="round" stroke-linejoin="round" stroke-miterlimit="4" stroke="#2c2c2c" stroke-width="2" stroke-opacity="1"><g><path d="M 18.5 152.0643L 18 168.3306L 69 169.8306L 69.5 157.5648L 71 155.5648L 80.1081 142.1613C 73.9402 144.0112 62.5 147.0625 55.5 149.0625C 49 150.9196 45.1667 144.0627 44 140.5625L 38 120.5625C 35.5 112.2292 31 95.0625 29.5 90.5625C 27.7322 85.2592 28.5 80.0648 28 70.0648C 27.5 60.0648 17.5 53.5643 14 52.5643C 11.2 51.7643 10.1667 53.8976 10 55.0643L 11.5 95.0643C 11.6667 108.0643 12.1 135.4643 12.5 141.0643C 12.9 146.6643 16.6667 150.7309 18.5 152.0643ZM 96.5 170.33C 96.5 170.33 96.3293 164.0878 94.4999 160.6186C 90.2364 152.5336 80.1081 142.1613 80.1081 142.1613C 77.2304 139.6192 74.2477 136.6748 72 133.5625C 63.6237 121.9645 60.718 109.475 53.9042 97.2858C 52.8216 95.3491 52.9562 92.8367 54.7681 91.5561C 56.2888 90.4813 58.2426 89.5625 60.5 89.5625C 67 89.5625 71.3333 94.5644 73 96.0642L 55.5 49.5662C 54.5 46.5662 52.7 40.3645 59.5 37.5645C 66.3 34.7645 69.3333 40.8992 70.4999 43.5659L 87.4146 88.3317C 85.4474 82.9436 83.6922 73.1152 90.4999 70.5623C 98.4999 67.5623 103.1665 79.3956 104.4999 83.5623C 104.1665 79.729 103.4999 70.5623 108.9999 68.5623C 115.3912 66.2382 118.9999 72.0623 120.9999 76.5623C 122.5999 80.1623 123.6665 82.729 123.9999 83.5623C 122.6665 79.229 120.9999 70.7623 126.4999 68.5623C 131.4999 66.5623 135.9999 68.0623 137.9999 73.5623L 147.9999 98.0639C 150.3332 105.396 147.5 118.5625 147 124.0625C 147 124.0625 145.289 133.8365 146.5 140.5625C 147.4048 145.5878 149.5 155.0625 149.5 155.0625L 96.5 170.33ZM 102.9996 12.5644L 100.4996 15.0644L 106.4999 36.5662C 107.8332 34.7329 111.7996 30.1662 114.9996 26.5662C 118.1996 22.9662 118.3329 19.3995 117.9996 18.0662C 117.8329 16.5656 116.5996 13.0644 112.9996 11.0644C 109.3996 9.0644 105.5 10.0626 102.9996 12.5644ZM 107.9999 41.5662L 101.9996 49.5662C 101.9996 49.5662 93.6737 60.0663 98.4999 66.5662C 101.0959 70.0625 106.5 69.5625 106.5 69.5625L 110.5 68.0626C 114.5 66.0626 114.9999 63.5625 117.9996 59.0662C 121.019 54.5403 122.6663 50.8995 122.9996 49.5662C 123.3329 48.2329 122.9996 44.5662 117.9996 41.5662C 113.9849 39.1574 109.4999 40.0662 107.9999 41.5662ZM 73 96.0642L 81.5 115.5625M 87.4146 88.3317L 87.4999 88.5623C 87.4714 88.4864 87.443 88.4095 87.4146 88.3317Z"></path></g></g></g><g id="g-root-cp_0b_g-0b_18lb3g11ng4f0g-fill" data-item-order="-448982" transform="translate(420.5, 329.679931640625)"><g id="cp_0b_g-0b_18lb3g11ng4f0g-fill-merged" stroke="none" fill="#426397" fill-opacity="1"><g><path d="M100.592 26.229C102.212 26.279 103.5 27.607 103.5 29.228 V42.319 H105.955C107.629 42.319 108.979 43.689 108.954 45.363L93.5 138.821 H10L27.852 45.162C27.935 43.569 29.252 42.319 30.848 42.319 H36.5L38.194 27.071C38.367 25.517 39.705 24.356 41.269 24.404L100.592 26.229 M182.801 10.152C184.28 9.663 185.887 10.387 186.5 11.819L190 24.32C191.48 23.824 194.5 23.82 195.5 26.32L221.5 138.821 H139.5L124.5 47.82C124 45.32 124.841 43.377 126.5 42.82L123 30.32C122.401 28.725 123.633 27.223 125.5 26.82L182.801 10.152"></path></g></g></g><g id="g-root-cp_0b_g-0b_18lb3g11ng4f0g-stroke" data-item-order="-448982" transform="translate(420.5, 329.679931640625)"><g id="cp_0b_g-0b_18lb3g11ng4f0g-stroke" fill="none" stroke-linecap="round" stroke-linejoin="round" stroke-miterlimit="4" stroke="#2c2c2c" stroke-width="2" stroke-opacity="1"><g><path d="M 139.499975 138.820162L 124.499975 47.820162C 123.999975 45.820162 124.822275 43.377162 126.481675 42.820162L 122.999975 30.820162C 122.401375 29.225162 123.249375 27.452462 124.866875 26.917562L 182.787875 10.183262C 184.266875 9.694262 185.874175 10.418662 186.487375 11.850662L 189.999975 24.320162C 191.437675 23.837562 194.325875 23.820762 195.407775 26.108562C 195.473375 26.247262 195.517375 26.395262 195.551875 26.544762L 221.499975 138.820162L 139.499975 138.820162ZM 9.999975 138.819362L 27.851475 45.161162C 27.934675 43.567362 29.251375 42.317662 30.847375 42.317662L 36.499975 42.317662L 38.194175 27.070162C 38.366875 25.515762 39.704775 24.354762 41.268075 24.402862L 100.592275 26.228262C 102.212475 26.278162 103.499975 27.605962 103.499975 29.226862L 103.499975 42.317662L 105.954875 42.317662C 107.553975 42.317662 108.857375 43.567762 108.949675 45.138462C 108.958375 45.287262 108.942375 45.436262 108.918075 45.583362L 93.499975 138.819362L 9.999975 138.819362ZM 126.481675 42.820162L 189.999975 24.320162M 36.499975 42.317662L 103.499975 42.317662"></path></g></g></g><g id="g-root-cp_2_text-2_zpo3751ng4ft5-fill" data-item-order="-448972" transform="translate(710, 146)"><g id="cp_2_text-2_zpo3751ng4ft5-fill-merged" stroke="none" fill="#815d3b" fill-opacity="1"><g><path d="M10 46C10 65.882 26.118 82 46 82C65.882 82 82 65.882 82 46C82 26.118 65.882 10 46 10C26.118 10 10 26.118 10 46"></path></g></g></g><g id="g-root-cp_2_text-2_zpo3751ng4ft5-stroke" data-item-order="-448972" transform="translate(710, 146)"><g id="cp_2_text-2_zpo3751ng4ft5-stroke" fill="none" stroke-linecap="round" stroke-linejoin="round" stroke-miterlimit="4" stroke="#2c2c2c" stroke-width="2" stroke-opacity="1"><g><path d="M 10 46C 10 65.882251 26.117749 82 46 82C 65.882251 82 82 65.882251 82 46C 82 26.117749 65.882251 10 46 10C 26.117749 10 10 26.117749 10 46"></path></g></g></g><g id="g-root-cp_0_g-0_2_v9ul2p1ng4gle-fill" data-item-order="-448957" transform="translate(638, 175.5)"></g><g id="g-root-cp_0_g-0_2_v9ul2p1ng4gle-stroke" data-item-order="-448957" transform="translate(638, 175.5)"><g id="cp_0_g-0_2_v9ul2p1ng4gle-stroke" fill="none" stroke-linecap="round" stroke-linejoin="round" stroke-miterlimit="4" stroke="#f4f4f4" stroke-width="2" stroke-opacity="1"><g><path d="M 10 28.5L 10 100.5M 70 16.5L 22 16.5C 15.3726 16.5 10 21.8726 10 28.5M 63.546031 22.9997L 70.001431 16.4553L 63.457031 10"></path></g></g></g><g id="g-root-cp_4_text-4_v9ul2p1ng4glf-fill" data-item-order="-448950" transform="translate(710, 284)"><g id="cp_4_text-4_v9ul2p1ng4glf-fill-merged" stroke="none" fill="#914673" fill-opacity="1"><g><path d="M10 46C10 65.882 26.118 82 46 82C65.882 82 82 65.882 82 46C82 26.118 65.882 10 46 10C26.118 10 10 26.118 10 46"></path></g></g></g><g id="g-root-cp_4_text-4_v9ul2p1ng4glf-stroke" data-item-order="-448950" transform="translate(710, 284)"><g id="cp_4_text-4_v9ul2p1ng4glf-stroke" fill="none" stroke-linecap="round" stroke-linejoin="round" stroke-miterlimit="4" stroke="#2c2c2c" stroke-width="2" stroke-opacity="1"><g><path d="M 10 46C 10 65.882251 26.117749 82 46 82C 65.882251 82 82 65.882251 82 46C 82 26.117749 65.882251 10 46 10C 26.117749 10 10 26.117749 10 46"></path></g></g></g><g id="g-root-cp_0_g-0_3_me7ktt1ng4he4-fill" data-item-order="-448935" transform="translate(637.9998168945312, 266)"></g><g id="g-root-cp_0_g-0_3_me7ktt1ng4he4-stroke" data-item-order="-448935" transform="translate(637.9998168945312, 266)"><g id="cp_0_g-0_3_me7ktt1ng4he4-stroke" fill="none" stroke-linecap="round" stroke-linejoin="round" stroke-miterlimit="4" stroke="#f4f4f4" stroke-width="2" stroke-opacity="1"><g><path d="M 70.000169 64L 21.999969 64C 15.372569 64 9.999969 58.6274 9.999969 52M 63.545238 70.4997L 70.000638 63.9553L 63.456238 57.5M 10.000183 10L 10.000184 52"></path></g></g></g><g id="g-root-tx_executes_1cvibsh1ng7abq-fill" data-item-order="0" transform="translate(806, 368)"><g id="tx_executes_1cvibsh1ng7abq-fill-merged" stroke="none" fill="#f4f4f4" fill-opacity="1"><g><text style="font: 15px &quot;Shantell Sans&quot;, cursive; white-space: pre;" transform="translate(10, 37)" font-size="15px" font-family="'Shantell Sans', cursive"><tspan x="2" y="-8" dominant-baseline="ideographic">Executes actions or </tspan><tspan x="2" y="10" dominant-baseline="ideographic">escalates to human </tspan><tspan x="2" y="28" dominant-baseline="ideographic">agents.</tspan></text></g></g></g><g id="g-root-tx_executes_1cvibsh1ng7abq-stroke" data-item-order="0" transform="translate(806, 368)"></g><g id="g-root-tx_realtime_hs5bu91ng78xt-fill" data-item-order="0" transform="translate(806, 170)"><g id="tx_realtime_hs5bu91ng78xt-fill-merged" stroke="none" fill="#f79438" fill-opacity="1"><g><text style="font: 20px &quot;Shantell Sans&quot;, cursive; white-space: pre;" transform="translate(10, 22)" font-size="20px" font-family="'Shantell Sans', cursive"><tspan x="2" y="13.5" dominant-baseline="ideographic">Real-Time STT</tspan></text></g></g></g><g id="g-root-tx_realtime_hs5bu91ng78xt-stroke" data-item-order="0" transform="translate(806, 170)"></g><g id="g-root-tx_inboundo_143m6291ng5uyz-fill" data-item-order="0" transform="translate(93.0546875, 179)"><g id="tx_inboundo_143m6291ng5uyz-fill-merged" stroke="none" fill="#ffe711" fill-opacity="1"><g><text style="font: 20px &quot;Shantell Sans&quot;, cursive; white-space: pre;" transform="translate(110.9453125, 34)" font-size="20px" font-family="'Shantell Sans', cursive"><tspan x="-98.95" y="1.5" dominant-baseline="ideographic">Inbound / </tspan><tspan x="-96.77" y="25.5" dominant-baseline="ideographic">Outbound</tspan></text></g></g></g><g id="g-root-tx_inboundo_143m6291ng5uyz-stroke" data-item-order="0" transform="translate(93.0546875, 179)"></g><g id="g-root-tx_speechun_4gotgx1ng7aiq-fill" data-item-order="0" transform="translate(806, 206)"><g id="tx_speechun_4gotgx1ng7aiq-fill-merged" stroke="none" fill="#f4f4f4" fill-opacity="1"><g><text style="font: 15px &quot;Shantell Sans&quot;, cursive; white-space: pre;" transform="translate(10, 37)" font-size="15px" font-family="'Shantell Sans', cursive"><tspan x="2" y="-8" dominant-baseline="ideographic">Speech understanding </tspan><tspan x="2" y="10" dominant-baseline="ideographic">for accurate </tspan><tspan x="2" y="28" dominant-baseline="ideographic">transcription.</tspan></text></g></g></g><g id="g-root-tx_speechun_4gotgx1ng7aiq-stroke" data-item-order="0" transform="translate(806, 206)"></g><g id="g-root-tx_handlesc_qss4s11ng5te4-fill" data-item-order="0" transform="translate(34.3046875, 239)"><g id="tx_handlesc_qss4s11ng5te4-fill-merged" stroke="none" fill="#f4f4f4" fill-opacity="1"><g><text style="font: 15px &quot;Shantell Sans&quot;, cursive; white-space: pre;" transform="translate(169.6953125, 28)" font-size="15px" font-family="'Shantell Sans', cursive"><tspan x="-157.7" y="1" dominant-baseline="ideographic">Handles calls via SIP, </tspan><tspan x="-104.86" y="19" dominant-baseline="ideographic">PSTN, or VoIP.</tspan></text></g></g></g><g id="g-root-tx_handlesc_qss4s11ng5te4-stroke" data-item-order="0" transform="translate(34.3046875, 239)"></g><g id="g-root-ic_t_1cu9dm91ng785k-fill" data-item-order="0" transform="translate(722, 158)"></g><g id="g-root-ic_t_1cu9dm91ng785k-stroke" data-item-order="0" transform="translate(722, 158)"><g id="ic_t_1cu9dm91ng785k-stroke" fill="none" stroke-linecap="round" stroke-linejoin="round" stroke-miterlimit="4" stroke="#f79438" stroke-width="2" stroke-opacity="1"><g><path d="M 11 47.256001C 11.548976 52.323486 15.885928 56.12719 20.981724 56.010429C 26.077522 55.893669 30.235704 51.895309 30.552 46.807999L 30.562 46.641998C 30.696762 43.470909 32.47509 40.599506 35.253998 39.066002C 39.957195 36.435387 42.882397 31.478813 42.911999 26.09C 42.883778 18.336313 37.009422 11.853643 29.296 11.064C 23.380085 10.510591 17.695133 13.501308 14.8 18.690001M 19.4 22.6C 21.815449 21.588367 24.576759 21.851566 26.757597 23.301304C 28.938435 24.751041 30.249887 27.195263 30.252001 29.814001C 30.257492 31.778696 29.546415 33.677979 28.252001 35.155998M 14.254 35.066002C 14.254001 38.931992 17.388008 42.066002 21.254002 42.066002C 25.119995 42.066002 28.254 38.931992 28.254 35.066002C 28.254 31.200008 25.119995 28.066002 21.254002 28.066002C 17.388008 28.066002 14.254001 31.200008 14.254001 35.066002ZM 19.588001 28.266001C 19.138367 27.259245 18.907286 26.1686 18.91 25.066002C 18.929836 20.667585 22.511585 17.118073 26.91 17.138C 34.891998 17.138 38.080002 27.958 33.222 34.438L 31.254 37.059998M 49.368 29L 49.368 29C 51.215946 32.077217 51.215946 35.922783 49.368 39L 49.368 39M 54.784 26L 54.784 26C 57.737877 30.92433 57.737877 37.075668 54.784 42L 54.784 42M 54 57L 54 49M 57 49L 51 49"></path></g></g></g><g id="g-root-ic_robo_zkoai91ng78qw-fill" data-item-order="0" transform="translate(722, 296)"></g><g id="g-root-ic_robo_zkoai91ng78qw-stroke" data-item-order="0" transform="translate(722, 296)"><g id="ic_robo_zkoai91ng78qw-stroke" fill="none" stroke-linecap="round" stroke-linejoin="round" stroke-miterlimit="4" stroke="#f366bb" stroke-width="2" stroke-opacity="1"><g><path d="M 32.145401 15.79688L 19.222881 15.79688C 16.5156 15.79688 14.44532 17.867161 14.44532 20.57444L 14.44532 51.145401C 14.44532 53.852798 16.515579 55.923 19.222881 55.923L 34.351799 55.923C 37.0592 55.923 39.129402 53.852798 39.129402 51.145401L 39.129402 35.177002M 14.44532 49.039001L 39.129402 49.039001M 40.781998 17.226L 49.554001 17.226C 49.554001 17.226 53.554001 17.226 53.554001 21.226L 53.554001 26.274C 53.554001 26.274 53.554001 30.274 49.554001 30.274L 40.781998 30.274C 40.781998 30.274 36.781998 30.274 36.781998 26.274L 36.781998 21.226C 36.781998 21.226 36.781998 17.226 40.781998 17.226M 10 10M 45.167999 12.08022L 45.167999 17.226561M 10 10M 42.417999 22.59046L 42.417999 24.914059M 10 10M 47.917999 22.59046L 47.917999 24.914059"></path></g></g></g><g id="g-root-ic_chip_6hl4h1ng5te7-fill" data-item-order="0" transform="translate(230, 311)"></g><g id="g-root-ic_chip_6hl4h1ng5te7-stroke" data-item-order="0" transform="translate(230, 311)"><g id="ic_chip_6hl4h1ng5te7-stroke" fill="none" stroke-linecap="round" stroke-linejoin="round" stroke-miterlimit="4" stroke="#fb6762" stroke-width="2" stroke-opacity="1"><g><path d="M 28.278 18.771999C 30.214836 18.118927 31.347731 16.110697 30.904995 14.115247C 30.462257 12.119797 28.586336 10.77914 26.555042 11.00649C 24.52375 11.233839 22.990633 12.956045 23 15C 23.005421 15.361034 23.059917 15.719655 23.161999 16.066C 22.939999 16.046 22.726 16 22.5 16C 19.64325 15.986053 17.029131 17.603924 15.767223 20.166893C 14.505317 22.729862 14.817009 25.788288 16.57 28.044001C 13.438807 28.258814 11.008611 30.861448 11.008611 34C 11.008611 37.13855 13.438807 39.741184 16.57 39.956001C 14.817009 42.211712 14.505317 45.270138 15.767223 47.833107C 17.029131 50.396076 19.64325 52.013947 22.5 52C 22.726 52 22.939999 51.953999 23.161999 51.933998C 22.567677 54.036442 23.770287 56.226803 25.863207 56.853825C 27.956127 57.480846 30.16497 56.312527 30.824539 54.229633C 31.484108 52.14674 30.350359 49.919956 28.278 49.228001M 39.722 18.771999C 37.785164 18.118927 36.652267 16.110697 37.095005 14.115247C 37.537743 12.119797 39.413666 10.77914 41.444958 11.00649C 43.47625 11.233839 45.009369 12.956045 45 15C 44.994579 15.361034 44.940079 15.719655 44.838001 16.066C 45.060001 16.046 45.273998 16 45.5 16C 48.35675 15.986053 50.970871 17.603924 52.232777 20.166893C 53.494682 22.729862 53.182991 25.788288 51.43 28.044001C 54.561192 28.258814 56.99139 30.861448 56.99139 34C 56.99139 37.13855 54.561192 39.741184 51.43 39.956001C 53.182991 42.211712 53.494682 45.270138 52.232777 47.833107C 50.970871 50.396076 48.35675 52.013947 45.5 52C 45.273998 52 45.060001 51.953999 44.838001 51.933998C 45.432323 54.036442 44.229713 56.226803 42.136795 56.853825C 40.043873 57.480846 37.83503 56.312527 37.175461 54.229633C 36.515892 52.14674 37.649643 49.919956 39.722 49.228001M 31 14.8C 32.856407 13.728203 35.143593 13.728203 37 14.8M 37 53.200001C 35.143593 54.271797 32.856407 54.271797 31 53.200001M 28 26L 40 26C 40 26 42 26 42 28L 42 40C 42 40 42 42 40 42L 28 42C 28 42 26 42 26 40L 26 28C 26 28 26 26 28 26M 30 22L 30 26M 38 22L 38 26M 22 38L 26 38M 22 30L 26 30M 38 46L 38 42M 30 46L 30 42M 46 30L 42 30M 46 38L 42 38"></path></g></g></g><g id="g-root-ic_1_93djjl1ng4fta-fill" data-item-order="0" transform="translate(230, 167)"></g><g id="g-root-ic_1_93djjl1ng4fta-stroke" data-item-order="0" transform="translate(230, 167)"><g id="ic_1_93djjl1ng4fta-stroke" fill="none" stroke-linecap="round" stroke-linejoin="round" stroke-miterlimit="4" stroke="#ffe711" stroke-width="2" stroke-opacity="1"><g><path d="M 31.704 56.632C 26.903999 51.82 28.606001 48.068001 31.212 45.462002L 32.893997 43.779999C 34.56855 42.10553 37.283447 42.10553 38.958 43.780003L 46.236 51.060001C 46.830303 51.653156 47.087749 52.5047 46.921608 53.327759C 46.755466 54.150822 46.187859 54.835823 45.41 55.151997C 36.089676 58.961285 25.393772 56.807545 18.274115 49.687885C 11.154455 42.568226 9.000715 31.872324 12.809999 22.552C 13.126175 21.774139 13.811177 21.206532 14.634237 21.04039C 15.457298 20.874249 16.308844 21.131695 16.902 21.726L 24.186001 29C 25.86047 30.674551 25.86047 33.38945 24.186001 35.064003L 22.504 36.746002C 19.903999 39.346001 16.146 41.054001 11.334 36.253998M 56.972 10.996L 36.972 30.996M 43.972 10.994L 56.972 10.994L 56.972 23.993999"></path></g></g></g><g id="g-root-tx_aireason_dhbmep1ng5uz1-fill" data-item-order="0" transform="translate(57.9296875, 323)"><g id="tx_aireason_dhbmep1ng5uz1-fill-merged" stroke="none" fill="#fb6762" fill-opacity="1"><g><text style="font: 20px &quot;Shantell Sans&quot;, cursive; white-space: pre;" transform="translate(146.0703125, 22)" font-size="20px" font-family="'Shantell Sans', cursive"><tspan x="-134.07" y="13.5" dominant-baseline="ideographic">AI Reasoning</tspan></text></g></g></g><g id="g-root-tx_aireason_dhbmep1ng5uz1-stroke" data-item-order="0" transform="translate(57.9296875, 323)"></g><g id="g-root-tx_autonomo_me7ktt1ng4he5-fill" data-item-order="0" transform="translate(280.33984375, 38)"><g id="tx_autonomo_me7ktt1ng4he5-fill-merged" stroke="none" fill="#f4f4f4" fill-opacity="1"><g><text style="font: bold 25px &quot;Shantell Sans&quot;, cursive; white-space: pre;" transform="translate(229.66015625, 25)" font-weight="bold" font-size="25px" font-family="'Shantell Sans', cursive"><tspan x="-217.66" y="16.5" dominant-baseline="ideographic">Autonomous Voice Agent Process</tspan></text></g></g></g><g id="g-root-tx_autonomo_me7ktt1ng4he5-stroke" data-item-order="0" transform="translate(280.33984375, 38)"></g><g id="g-root-tx_actionha_1hbbtwx1ng79jh-fill" data-item-order="0" transform="translate(806, 308)"><g id="tx_actionha_1hbbtwx1ng79jh-fill-merged" stroke="none" fill="#f366bb" fill-opacity="1"><g><text style="font: 20px &quot;Shantell Sans&quot;, cursive; white-space: pre;" transform="translate(10, 34)" font-size="20px" font-family="'Shantell Sans', cursive"><tspan x="2" y="1.5" dominant-baseline="ideographic">Action &amp; </tspan><tspan x="2" y="25.5" dominant-baseline="ideographic">Handoff</tspan></text></g></g></g><g id="g-root-tx_actionha_1hbbtwx1ng79jh-stroke" data-item-order="0" transform="translate(806, 308)"></g><g id="g-root-tx_contexta_91i4a91ng5vra-fill" data-item-order="0" transform="translate(26.46875, 359)"><g id="tx_contexta_91i4a91ng5vra-fill-merged" stroke="none" fill="#f4f4f4" fill-opacity="1"><g><text style="font: 15px &quot;Shantell Sans&quot;, cursive; white-space: pre;" transform="translate(177.53125, 37)" font-size="15px" font-family="'Shantell Sans', cursive"><tspan x="-139.47" y="-8" dominant-baseline="ideographic">Context and intent </tspan><tspan x="-165.53" y="10" dominant-baseline="ideographic">analysis for intelligent </tspan><tspan x="-76.7" y="28" dominant-baseline="ideographic">responses.</tspan></text></g></g></g><g id="g-root-tx_contexta_91i4a91ng5vra-stroke" data-item-order="0" transform="translate(26.46875, 359)"></g></g></g></svg>